<svg xmlns="http://www.w3.org/2000/svg" width="55" height="55" viewBox="0 0 55 55">
  <path fill-opacity=".87" d="M1.95265377,21.0277309 C1.70858741,20.1168629 2.11517381,19.4126346 2.75030338,19.0281499 C4.45138767,18.0008733 5.59780488,16.5031242 5.69686615,15.0955223 L2.47550352,15.9586839 C1.63128435,16.1848917 0.758041258,15.6807246 0.531833413,14.8365054 C0.293719891,13.9478536 0.797887026,13.0746105 1.6421062,12.8484027 L4.99676659,11.9495241 L4.93723821,11.7273612 C4.63364347,10.5943302 5.37942712,9.82302564 6.49024182,9.52538373 C7.60105652,9.22774183 8.63257639,9.52281937 8.93617113,10.6558504 L8.99569951,10.8780133 L12.3059273,9.99104043 C13.2390117,9.74102124 14.0678222,10.257094 14.3059357,11.1457458 C14.5321435,11.989965 14.072409,12.8513024 13.1393246,13.1013216 L9.9623946,13.9525774 C10.7178631,15.083586 12.4639219,15.7348645 14.4507424,15.77397 C15.1930231,15.7893786 15.8972514,16.195965 16.1413177,17.1068331 C16.4091955,18.1065663 15.8605957,18.9917151 14.8164299,19.2714985 C14.594267,19.3310269 14.3824147,19.3401698 14.1705623,19.3493128 C12.3630672,19.3574026 10.2127574,18.8858769 8.60945216,17.4343844 C7.98677018,19.5537624 6.37816858,21.1039195 4.78061786,21.9843976 C4.61479319,22.0764529 4.40453592,22.1804138 4.18237298,22.2399422 C3.13820716,22.5197256 2.22053148,22.0274641 1.95265377,21.0277309 Z M19.9574836,26.7279689 L15.3797512,9.64363886 C15.0761564,8.51060786 15.7326475,7.40605887 16.8434622,7.10841697 C17.9542769,6.81077507 19.0750894,7.43909701 19.3786841,8.57212801 L23.9564166,25.6564581 C24.2659641,26.8117054 23.6035202,27.8940381 22.4927055,28.19168 C21.3818908,28.4893219 20.2670312,27.8832162 19.9574836,26.7279689 Z M8.63503446,28.9046014 C8.71187944,27.5029524 8.70028664,26.4821705 8.51967905,25.3638079 L4.67626019,26.3936489 C3.83204101,26.6198568 2.93062879,26.0994262 2.71037378,25.2774233 C2.4782131,24.4109878 2.99864369,23.5095756 3.84286286,23.2833678 L15.8840942,20.0569296 C16.772746,19.818816 17.6519419,20.3451995 17.8841026,21.2116349 C18.1043576,22.0336378 17.6061433,22.9290972 16.7174915,23.1672107 L12.5630446,24.2803914 C12.8746146,25.8875125 13.0203599,27.5866888 12.8058594,29.0966566 C12.6413169,30.2598791 11.991519,30.7673509 11.1472998,30.9935588 C9.76988956,31.3626347 8.54192603,30.3344195 8.63503446,28.9046014 Z M25.7073975,14.3293076 C29.1040406,12.6095938 31.0453447,9.27968341 30.2952871,6.48043036 L30.0035981,5.39183196 C29.7654846,4.5031802 30.4398342,3.46528009 31.5950814,3.15573251 C32.7058961,2.85809061 33.7644175,3.43166935 34.002531,4.32032111 L34.2942201,5.40891952 C35.0442777,8.20817256 38.3904515,10.1213075 42.1918877,9.91230176 C43.0837295,9.86382427 43.8458912,10.3977556 44.072099,11.2419748 C44.3221182,12.1750591 43.7810664,13.1772422 42.847982,13.4272614 C42.692468,13.4689313 42.5087848,13.4943377 42.3917505,13.5018856 C38.7414706,13.7418232 35.6734851,12.778036 33.5805666,10.7433944 C32.7853669,13.551905 30.5880907,15.9265147 27.3291031,17.5379098 C27.2239745,17.5898902 27.052197,17.6597292 26.8966829,17.7013991 C25.9635986,17.9514183 24.9939424,17.3540282 24.7439232,16.4209439 C24.5177154,15.5767247 24.910801,14.7332458 25.7073975,14.3293076 Z M34.6981051,14.8252397 C35.7867035,14.5335506 36.8717989,15.0285748 37.1753937,16.1616058 L38.0980836,19.6051314 L44.6074577,17.8609498 C45.5627584,17.6049778 46.5205088,18.1579353 46.7645752,19.0688034 C47.0026887,19.9574551 46.4556841,20.9374219 45.5003834,21.1933939 L28.4604859,25.7592207 C27.5496179,26.0032871 26.5636982,25.4340661 26.3255847,24.5454144 C26.0815184,23.6345463 26.6566922,22.670843 27.5675602,22.4267766 L34.0991507,20.6766422 L33.1764608,17.2331167 C32.872866,16.1000857 33.5650741,15.1288344 34.6981051,14.8252397 Z M8.00042434,44.5758349 C7.78612217,43.7760483 8.00902538,43.0972264 8.56995818,42.613566 C10.9128651,40.6047275 11.6636323,37.8081227 11.0623957,35.564277 L10.8540463,34.7867067 C10.5564044,33.675892 11.2367069,32.6602082 12.3475216,32.3625663 C13.4583363,32.0649244 14.5553374,32.6043812 14.8529793,33.7151959 L15.0613286,34.4927662 C15.6625652,36.7366119 17.6812869,38.6720776 20.7147231,39.2403293 C21.4423354,39.3787251 21.9747861,39.8551505 22.1890883,40.6549371 C22.456966,41.6546703 21.8936979,42.6628062 20.8495321,42.9425896 C20.538504,43.0259294 20.1592319,43.0323096 19.8850885,42.9867093 C18.0164699,42.6778182 16.0391053,41.8742157 14.4369677,40.1604855 C13.940463,42.4841679 12.6254584,44.2413921 11.1616328,45.443209 C10.9470178,45.6197717 10.6153684,45.8038823 10.3043403,45.887222 C9.26017451,46.1670054 8.26830205,45.5755681 8.00042434,44.5758349 Z M11.5288316,52.6787149 L10.4989906,48.835296 C10.2013487,47.7244813 10.9114153,46.8198789 12.02223,46.522237 C13.1330447,46.2245951 14.2002816,46.6529704 14.4979235,47.7637851 L15.2003584,50.3853078 L28.4412696,46.8374164 C29.3077051,46.6052557 30.1809482,47.1094228 30.4131089,47.9758583 C30.6452695,48.8422937 30.1411024,49.7155368 29.2746669,49.9476975 L13.9232078,54.0611086 C12.9456908,54.3230335 11.8383791,53.8339621 11.5288316,52.6787149 Z M24.463782,43.5457035 L21.3325892,31.8599329 C21.0289945,30.7269019 21.6854856,29.6223529 22.7963003,29.324711 C23.907115,29.0270691 25.0279274,29.655391 25.3315221,30.788422 L28.462715,42.4741927 C28.7722625,43.6294399 28.1098186,44.7117726 26.9990039,45.0094145 C25.8881892,45.3070564 24.7733296,44.7009508 24.463782,43.5457035 Z M38.272266,47.5367981 C35.9395551,48.1618461 33.6003495,47.074217 32.9753015,44.7415061 C32.3443007,42.386579 33.8262976,40.2750617 36.1590085,39.6500137 L46.6673156,36.8343214 C49.0222427,36.2033205 51.3614484,37.2909496 51.9924492,39.6458768 C52.6174972,41.9785877 51.1355002,44.0901049 48.7805731,44.7211057 L38.272266,47.5367981 Z M30.321847,38.5710164 C30.0837335,37.6823646 30.4133604,37.0463803 30.9477191,36.6412744 C32.4738357,35.4942008 33.48217,33.7477146 33.3479029,31.735915 L30.482001,32.5038311 C29.6155655,32.7359918 28.760181,32.2984736 28.5161146,31.3876055 C28.2601426,30.4323049 28.7821682,29.6257107 29.6486037,29.39355 L32.6255871,28.5958697 L32.5065303,28.1515438 C32.2029356,27.0185128 32.918955,26.1361268 34.0297697,25.8384849 C35.1405844,25.540843 36.2018685,25.947002 36.5054632,27.080033 L36.62452,27.5243588 L39.6015034,26.7266785 C40.556804,26.4707065 41.367756,26.9201304 41.6237281,27.8754311 C41.8677944,28.7862991 41.3902014,29.5809877 40.4349007,29.8369597 L37.5689988,30.6048758 C38.4407613,32.34763 40.1753419,33.3115316 42.0705345,33.5418682 C42.7358556,33.6255208 43.3393131,34.011486 43.5774266,34.9001378 C43.8453043,35.899871 43.3086103,36.8294523 42.2644445,37.1092357 C41.9756326,37.1866226 41.646746,37.2033135 41.3503863,37.1636661 C39.6507825,36.9523557 37.8884603,36.3292463 36.4866968,34.9189963 C35.9735012,36.9137921 34.7647929,38.356798 33.3822846,39.4177692 C33.1454533,39.6002848 32.8522837,39.7502734 32.5634719,39.8276603 C31.519306,40.1074437 30.5897247,39.5707496 30.321847,38.5710164 Z M46.0807473,34.4674885 L45.4795107,32.2236428 L43.0801509,32.8665493 C42.2137155,33.09871 41.3404724,32.5945429 41.1083117,31.7281074 C40.876151,30.8616719 41.3803181,29.9884289 42.2467536,29.7562682 L44.6461134,29.1133617 L43.7710462,25.8475664 C43.4674514,24.7145354 44.1239425,23.6099865 45.2347572,23.3123446 C46.3455719,23.0147027 47.4663843,23.6430246 47.7699791,24.7760556 L50.0796802,33.3959777 C50.3892278,34.551225 49.7267839,35.6335577 48.6159692,35.9311996 C47.5051545,36.2288415 46.3902949,35.6227358 46.0807473,34.4674885 Z M36.9298019,43.681901 C37.0905285,44.2817409 37.6181941,44.4737123 38.2846829,44.2951271 L47.1489842,41.9199448 C47.815473,41.7413596 48.1986755,41.3053219 48.0379489,40.705482 C47.8772222,40.105642 47.3213875,39.8974072 46.6548987,40.0759923 L37.7905974,42.4511747 C37.1241085,42.6297599 36.7690752,43.082061 36.9298019,43.681901 Z"/>
</svg>
