<svg xmlns="http://www.w3.org/2000/svg" width="55" height="55" viewBox="0 0 55 55">
  <path fill-opacity=".87" d="M3.74927039,30.20065 C3.57663809,29.5563774 3.67219637,28.9354889 3.99906055,28.4669242 C6.28275201,25.2595736 6.76564148,21.4632355 5.20599791,15.6425665 L4.43808181,12.7766646 C4.1404399,11.6658499 4.79097814,10.5390846 5.90179284,10.2414427 C7.01260754,9.94380077 8.13937282,10.594339 8.43701473,11.7051537 L9.20493083,14.5710556 C10.7645744,20.3917247 13.0349103,23.3550928 16.6163205,24.9908942 C17.1336755,25.233251 17.5431391,25.695008 17.7157714,26.3392805 C18.0015077,27.4056626 17.4441924,28.4360149 16.3333777,28.7336568 C15.8224029,28.870572 15.2919746,28.8460204 14.8813433,28.6465012 C12.7214631,27.6060674 11.0590569,26.2894677 9.62231662,24.1266264 C9.49360567,26.7565518 8.70786174,28.8005654 7.3575675,30.7815476 C7.10170998,31.159652 6.65462138,31.4461285 6.14364662,31.5830437 C5.03283192,31.8806856 4.03500662,31.2670321 3.74927039,30.20065 Z M19.2868626,26.870762 L14.7091301,9.78643193 C14.4055354,8.65340093 15.0620265,7.54885194 16.1728412,7.25121004 C17.2836559,6.95356814 18.4044683,7.58189008 18.7080631,8.71492108 L20.3510464,14.8466182 L21.4396448,14.5549292 C22.3505128,14.3108628 23.3023105,14.841604 23.5523297,15.7746884 C23.8023489,16.7077727 23.2434385,17.6433069 22.3325705,17.8873733 L21.2439721,18.1790623 L23.2857955,25.7992512 C23.5953431,26.9544985 22.9328992,28.0368311 21.8220845,28.3344731 C20.7112698,28.632115 19.5964102,28.0260093 19.2868626,26.870762 Z M24.1816209,16.7013925 C23.9494602,15.834957 24.4698908,14.9335448 25.31411,14.7073369 L27.957849,13.9989492 L27.5709145,12.5548901 C25.5373261,13.0521658 23.4869323,11.8871498 22.945224,9.86546703 C22.3975629,7.82156798 23.623275,5.73109937 25.6893903,5.17748543 L37.530675,2.00462276 C39.5745741,1.45696166 41.7257387,2.64259889 42.2733998,4.68649793 C42.8151081,6.70818069 41.5997066,8.74826387 39.6121459,9.32845188 L39.9990803,10.772511 L42.620603,10.0700761 C43.5092548,9.83196258 44.3884507,10.358346 44.6206114,11.2247815 C44.8408664,12.0467844 44.3426521,12.9422437 43.4540004,13.1803573 L26.1475073,17.8176181 C25.3032882,18.0438259 24.4018759,17.5233954 24.1816209,16.7013925 Z M26.3225056,22.9139795 C25.7688917,20.8478642 26.9886509,18.7351793 29.0547662,18.1815653 L41.1182139,14.9491743 C43.1843292,14.3955603 45.3192304,15.6093667 45.8728444,17.675482 C46.4264583,19.7415974 45.17853,21.8380188 43.1124146,22.3916328 L31.048967,25.6240238 C28.9828516,26.1776377 26.8761196,24.9800948 26.3225056,22.9139795 Z M30.277006,21.8543743 C30.3782042,22.2320513 30.7162338,22.4272128 31.0939108,22.3260146 L41.4244875,19.5579449 C41.8021645,19.4567466 42.0195423,19.1127642 41.918344,18.7350872 C41.8171458,18.3574102 41.4509471,18.1459853 41.0732701,18.2471835 L30.7426934,21.0152532 C30.3650164,21.1164515 30.1758077,21.4766973 30.277006,21.8543743 Z M26.8997244,8.80586186 C26.9949698,9.16132256 27.2885668,9.36838971 27.7773252,9.23742727 L37.7746575,6.55865015 C38.263416,6.42768772 38.4141449,6.10156381 38.3188995,5.7461031 C38.2236541,5.3906424 37.9300571,5.18357525 37.4412986,5.31453769 L27.4439663,7.99331481 C26.9552078,8.12427724 26.8044789,8.45040115 26.8997244,8.80586186 Z M31.4809823,11.5071906 L31.8679167,12.9512497 L36.0890126,11.8202105 L35.7020781,10.3761514 L31.4809823,11.5071906 Z M10.229316,47.2752952 C9.3628805,47.5074559 8.4896374,47.0032887 8.25747672,46.1368533 C8.02531604,45.2704178 8.52948317,44.3971747 9.39591864,44.165014 L13.0171746,43.1947014 L12.5111833,41.3063164 L11.1782057,41.6634867 C9.22317181,42.1873365 7.25685802,40.7140551 6.67347989,38.5368583 C6.09010176,36.3596615 7.05633877,34.1006055 9.01137264,33.5767557 L15.609612,31.8087628 C17.5646458,31.2849131 19.5309596,32.7581944 20.1143378,34.9353913 C20.6977159,37.1125881 19.7314789,39.3716441 17.776445,39.8954938 L16.4656837,40.2467113 L16.930005,41.9795822 C18.1118264,41.5914801 19.2757892,41.136729 20.4441099,40.6093763 C21.2748283,40.2439179 22.251605,40.6012865 22.5948471,41.4379578 C22.9440421,42.2968453 22.5362881,43.2633114 21.7662657,43.588695 C18.0879312,45.1457742 14.3837629,46.1621145 10.229316,47.2752952 Z M23.977699,44.3772017 L20.6619682,32.0027259 C20.3583734,30.8696949 21.0148645,29.7651459 22.1256792,29.467504 C23.2364939,29.1698621 24.3573064,29.7981841 24.6609011,30.9312151 L25.8514687,35.3744739 L27.0511486,35.0530206 C27.917584,34.8208599 28.7908271,35.3250271 29.0229878,36.1914625 C29.2551485,37.057898 28.7509814,37.9311411 27.8845459,38.1633018 L26.684866,38.484755 L27.9766319,43.3056908 C28.2861795,44.4609381 27.6237355,45.5432708 26.5129208,45.8409127 C25.4021061,46.1385546 24.2872465,45.532449 23.977699,44.3772017 Z M11.4802667,52.6548285 L10.7183035,49.8111428 C10.4206616,48.7003281 11.1307282,47.7957258 12.2415429,47.4980839 C13.3523576,47.200442 14.4195945,47.6288173 14.7172364,48.739632 L15.1517936,50.3614214 L27.9928115,46.9206811 C28.859247,46.6885204 29.7324901,47.1926875 29.9646507,48.059123 C30.1968114,48.9255584 29.6926443,49.7988015 28.8262088,50.0309622 L13.874643,54.0372222 C12.897126,54.2991471 11.7898143,53.8100757 11.4802667,52.6548285 Z M10.5835476,37.4891588 C10.7442743,38.0889987 11.2128389,38.4158629 11.7015974,38.2849005 L15.6338814,37.2312481 C16.1226399,37.1002857 16.3649966,36.5829307 16.20427,35.9830908 C16.0435434,35.3832508 15.5749788,35.0563866 15.0862203,35.1873491 L11.1539363,36.2410014 C10.6651778,36.3719638 10.422821,36.8893188 10.5835476,37.4891588 Z M34.732377,36.9713375 L48.2843164,33.3401063 C49.1507518,33.1079456 50.0239949,33.6121127 50.2561556,34.4785482 C50.4883163,35.3449837 49.9841492,36.2182268 49.1177137,36.4503874 L33.0997657,40.7423837 C32.2555465,40.9685915 31.3823035,40.4644244 31.1560956,39.6202052 L29.8583769,34.7770531 C29.6321691,33.9328339 30.1720532,33.1928886 31.0162724,32.9666808 L44.3682651,29.3890251 L43.9396608,27.7894519 L30.5210192,31.3849661 C29.6545837,31.6171268 28.7591243,31.1189125 28.5269636,30.252477 C28.294803,29.3860416 28.8211864,28.5068456 29.6876219,28.2746849 L45.5722721,24.0184057 C46.4164912,23.7921979 47.2897343,24.296365 47.5159422,25.1405842 L48.7660382,29.806006 C48.9981989,30.6724414 48.4880789,31.5234682 47.6216434,31.7556289 L34.291867,35.3273317 L34.732377,36.9713375 Z M32.2358108,46.7600383 C31.9917444,45.8491702 32.5728711,44.9076832 33.4837391,44.6636168 L35.9497477,44.0028518 L35.5687661,42.581009 C35.2651714,41.447978 35.9887387,40.6826262 37.1217697,40.3790315 C38.2548007,40.0754368 39.2641043,40.3764671 39.567699,41.5094981 L39.9486807,42.9313409 L44.0809114,41.8241131 L43.6999297,40.4022703 C43.396335,39.2692393 44.1199023,38.5038875 45.2529333,38.2002928 C46.3859643,37.896698 47.3952679,38.1977284 47.6988626,39.3307594 L48.0798443,40.7526022 L50.5236366,40.09779 C51.4789373,39.841818 52.4307349,40.3725592 52.6748013,41.2834273 C52.9129148,42.172079 52.3599573,43.1298295 51.4046566,43.3858016 L34.3647591,47.9516283 C33.4538911,48.1956947 32.4739243,47.64869 32.2358108,46.7600383 Z"/>
</svg>
