<svg xmlns="http://www.w3.org/2000/svg" width="55" height="55" viewBox="0 0 55 55">
  <path fill-opacity=".87" d="M2.72525588,25.252464 C2.51095371,24.4526775 2.98854677,23.6579889 3.78833335,23.4436868 L7.52067074,22.44361 L7.16350046,21.1106323 L5.63057618,21.5213781 C4.14208448,21.9202183 2.56301802,20.9146467 2.11655517,19.2484247 C1.67009232,17.5822026 2.53481821,15.9218189 4.02330991,15.5229788 L11.0436588,13.6418819 C12.5321505,13.2430418 14.111217,14.2486133 14.5576798,15.9148354 C15.0041427,17.5810574 14.1394168,19.2414412 12.6509251,19.6402813 L11.1180008,20.0510271 L11.4454069,21.2729233 C12.7160934,20.8610098 13.8756985,20.4788605 14.9285799,20.0538737 C15.1225737,19.9780819 15.2499186,19.9201485 15.3387838,19.8963372 C16.1385704,19.682035 16.9495224,20.131459 17.1638245,20.9312455 C17.3721739,21.7088158 16.9878038,22.4070913 16.1896122,22.7162115 C12.3037832,24.2098319 8.79360877,25.1503803 4.55029662,26.2873724 C3.75051004,26.5016746 2.93955804,26.0522506 2.72525588,25.252464 Z M18.2847515,22.8929725 L14.7785299,9.80757535 C14.4749351,8.67454436 15.1314262,7.56999537 16.2422409,7.27235347 C17.3530556,6.97471156 18.4738681,7.60303351 18.7774628,8.7360645 L20.0097003,13.3348374 L21.2093802,13.0133841 C22.0758156,12.7812234 22.9490587,13.2853906 23.1812194,14.151826 C23.4133801,15.0182615 22.9092129,15.8915046 22.0427775,16.1236653 L20.8430976,16.4451185 L22.2836844,21.8214617 C22.593232,22.976709 21.9010239,23.9479602 20.7902092,24.2456021 C19.6793945,24.543244 18.5942991,24.0482198 18.2847515,22.8929725 Z M5.59682845,30.4596779 L5.10869573,28.6379418 C4.81105383,27.5271271 5.55088464,26.7336062 6.66169934,26.4359643 C7.77251404,26.1383224 8.80998675,26.4556162 9.10762865,27.5664309 L9.35169501,28.477299 L22.3926596,24.982983 C23.1480136,24.7805866 23.9204858,25.2641325 24.1228823,26.0194864 C24.3252788,26.7748404 23.8980712,27.5798396 23.1427172,27.7822361 L7.99120467,31.8420716 C7.01368774,32.1039965 5.90637603,31.6149252 5.59682845,30.4596779 Z M0.420110851,14.2501859 C0.217714358,13.4948319 0.662780507,12.7564817 1.4181345,12.5540852 L4.61728084,11.6968765 L4.54584678,11.430281 C4.24225204,10.29725 5.04756407,9.74810834 6.15837877,9.45046644 C7.26919347,9.15282454 8.24118496,9.22573913 8.5447797,10.3587701 L8.61621376,10.6253657 L11.8375764,9.76220414 C12.5707141,9.56576048 13.3312807,10.0048738 13.5277243,10.7380115 C13.724168,11.4711492 13.2850547,12.2317158 12.551917,12.4281594 L2.13247507,15.2200405 C1.37712107,15.422437 0.622507344,15.0055399 0.420110851,14.2501859 Z M5.67116221,18.2959706 C5.74854911,18.5847824 6.01992981,18.7978024 6.28652534,18.7263684 L10.6853516,17.5477064 C10.9519471,17.4762724 11.0804597,17.1561013 11.0030728,16.8672895 C10.9256859,16.5784777 10.6543052,16.3654577 10.3877096,16.4368917 L5.98888344,17.6155537 C5.72228791,17.6869877 5.59377532,18.0071588 5.67116221,18.2959706 Z M44.5728092,18.5397915 L30.8431395,22.2186454 L31.0276775,22.9073505 L45.0683753,19.1451569 C45.801513,18.9487132 46.5057413,19.3552996 46.7021849,20.0884373 C46.8986286,20.821575 46.4920422,21.5258033 45.7589045,21.722247 L29.0078188,26.2106868 C28.2746811,26.4071305 27.5704528,26.0005441 27.3740091,25.2674064 L26.534659,22.1349089 C26.3620267,21.4906364 26.7360862,20.8427464 27.3803587,20.6701141 L41.1100284,16.9912602 L40.9314432,16.3247714 L27.157341,20.0155309 C26.4686358,20.2000689 25.7925767,19.809746 25.6080387,19.1210409 C25.4235007,18.4323357 25.8138237,17.7562766 26.5025288,17.5717386 L32.8563889,15.8692269 L32.5646998,14.7806285 L25.7220812,16.6141026 C24.944511,16.822452 24.1557753,16.3670752 23.9533788,15.6117212 C23.7390766,14.8119346 24.1944534,14.0231989 24.9720237,13.8148496 L42.5895448,9.09424902 C43.3893314,8.87994685 44.1780671,9.33532362 44.3923692,10.1351102 C44.5947657,10.8904642 44.139389,11.6791999 43.3396024,11.8935021 L36.5192001,13.7210233 L36.8108892,14.8096217 L43.0536678,13.1368743 C43.7423729,12.9523363 44.4184321,13.3426592 44.6029701,14.0313643 L45.4185089,17.0749966 C45.5911412,17.7192691 45.2170817,18.3671592 44.5728092,18.5397915 Z M41.5134471,2.50110775 L42.6385335,6.69998732 C42.84093,7.45534131 42.4018167,8.21590788 41.6464627,8.41830437 L25.4730007,12.7519705 C24.7176467,12.954367 23.9570801,12.5152536 23.7546836,11.7598996 L22.6295972,7.56102008 C22.3319553,6.45020538 23.077739,5.6789008 24.1663374,5.38721174 C25.1882869,5.11338119 26.1856848,5.36997898 26.5424277,6.34590085 L37.5172769,3.40519886 C37.3160481,2.38760712 38.0515211,1.66668797 39.095687,1.38690458 C40.1842854,1.09521552 41.2158052,1.39029305 41.5134471,2.50110775 Z M27.4055892,9.56726348 L38.3804384,6.62656149 L38.1720891,5.8489912 L27.1972399,8.78969319 L27.4055892,9.56726348 Z M10.2987157,47.2964386 C9.43228025,47.5285993 8.55903715,47.0244322 8.32687647,46.1579967 C8.09471578,45.2915612 8.59888292,44.4183181 9.46531839,44.1861575 L13.0865743,43.2158449 L12.5805831,41.3274599 L11.2476054,41.6846301 C9.29257156,42.2084799 7.32625776,40.7351985 6.74287964,38.5580017 C6.15950151,36.3808049 7.12573852,34.1217489 9.08077239,33.5978991 L15.6790117,31.8299062 C17.6340456,31.3060565 19.6003594,32.7793379 20.1837375,34.9565347 C20.7671156,37.1337315 19.8008786,39.3927875 17.8458448,39.9166372 L16.5350834,40.2678547 L16.9994048,42.0007256 C18.1812261,41.6126235 19.345189,41.1578725 20.5135096,40.6305197 C21.3442281,40.2650613 22.3210047,40.6224299 22.6642469,41.4591012 C23.0134419,42.3179888 22.6056878,43.2844548 21.8356654,43.6098385 C18.157331,45.1669177 14.4531627,46.1832579 10.2987157,47.2964386 Z M24.0470987,44.3983451 L20.7313679,32.0238694 C20.4277732,30.8908384 21.0842643,29.7862894 22.195079,29.4886475 C23.3058937,29.1910056 24.4267061,29.8193275 24.7303008,30.9523585 L25.9208685,35.3956173 L27.1205483,35.0741641 C27.9869838,34.8420034 28.8602269,35.3461705 29.0923876,36.212606 C29.3245483,37.0790414 28.8203811,37.9522845 27.9539457,38.1844452 L26.7542658,38.5058985 L28.0460316,43.3268343 C28.3555792,44.4820816 27.6931353,45.5644142 26.5823206,45.8620562 C25.4715059,46.1596981 24.3566463,45.5535924 24.0470987,44.3983451 Z M11.5496665,52.6759719 L10.7877032,49.8322862 C10.4900613,48.7214715 11.2001279,47.8168692 12.3109426,47.5192273 C13.4217573,47.2215854 14.4889942,47.6499607 14.7866361,48.7607754 L15.2211933,50.3825649 L28.0622113,46.9418245 C28.9286467,46.7096638 29.8018898,47.2138309 30.0340505,48.0802664 C30.2662112,48.9467019 29.762044,49.819945 28.8956086,50.0521056 L13.9440427,54.0583656 C12.9665258,54.3202905 11.8592141,53.8312192 11.5496665,52.6759719 Z M10.6529474,37.5103022 C10.813674,38.1101421 11.2822386,38.4370063 11.7709971,38.3060439 L15.7032811,37.2523915 C16.1920396,37.1214291 16.4343964,36.6040741 16.2736698,36.0042342 C16.1129431,35.4043942 15.6443785,35.0775301 15.15562,35.2084925 L11.223336,36.2621448 C10.7345775,36.3931073 10.4922208,36.9104623 10.6529474,37.5103022 Z M34.8017768,36.9924809 L48.3537161,33.3612497 C49.2201516,33.129089 50.0933947,33.6332562 50.3255554,34.4996916 C50.557716,35.3661271 50.0535489,36.2393702 49.1871134,36.4715309 L33.1691655,40.7635271 C32.3249463,40.9897349 31.4517032,40.4855678 31.2254954,39.6413486 L29.9277767,34.7981965 C29.7015688,33.9539774 30.241453,33.214032 31.0856722,32.9878242 L44.4376648,29.4101685 L44.0090605,27.8105954 L30.5904189,31.4061095 C29.7239835,31.6382702 28.8285241,31.1400559 28.5963634,30.2736205 C28.3642027,29.407185 28.8905861,28.5279891 29.7570216,28.2958284 L45.6416718,24.0395492 C46.485891,23.8133413 47.3591341,24.3175085 47.5853419,25.1617276 L48.8354379,29.8271494 C49.0675986,30.6935848 48.5574786,31.5446116 47.6910432,31.7767723 L34.3612668,35.3484751 L34.8017768,36.9924809 Z M32.3052105,46.7811817 C32.0611442,45.8703136 32.6422708,44.9288266 33.5531389,44.6847602 L36.0191475,44.0239952 L35.6381659,42.6021524 C35.3345711,41.4691214 36.0581385,40.7037697 37.1911695,40.4001749 C38.3242005,40.0965802 39.333504,40.3976106 39.6370988,41.5306416 L40.0180804,42.9524844 L44.1503111,41.8452565 L43.7693295,40.4234137 C43.4657347,39.2903827 44.1893021,38.5250309 45.3223331,38.2214362 C46.4553641,37.9178415 47.4646676,38.2188718 47.7682624,39.3519028 L48.149244,40.7737456 L50.5930364,40.1189335 C51.548337,39.8629614 52.5001347,40.3937026 52.744201,41.3045707 C52.9823145,42.1932225 52.429357,43.1509729 51.4740564,43.406945 L34.4341589,47.9727718 C33.5232908,48.2168381 32.5433241,47.6698334 32.3052105,46.7811817 Z"/>
</svg>
