<svg xmlns="http://www.w3.org/2000/svg" width="55" height="55" viewBox="0 0 55 55">
  <path fill-opacity=".87" d="M1.95265377,21.0277309 C1.70858741,20.1168629 2.11517381,19.4126346 2.75030338,19.0281499 C4.45138767,18.0008733 5.59780488,16.5031242 5.69686615,15.0955223 L2.47550352,15.9586839 C1.63128435,16.1848917 0.758041258,15.6807246 0.531833413,14.8365054 C0.293719891,13.9478536 0.797887026,13.0746105 1.6421062,12.8484027 L4.99676659,11.9495241 L4.93723821,11.7273612 C4.63364347,10.5943302 5.37942712,9.82302564 6.49024182,9.52538373 C7.60105652,9.22774183 8.63257639,9.52281937 8.93617113,10.6558504 L8.99569951,10.8780133 L12.3059273,9.99104043 C13.2390117,9.74102124 14.0678222,10.257094 14.3059357,11.1457458 C14.5321435,11.989965 14.072409,12.8513024 13.1393246,13.1013216 L9.9623946,13.9525774 C10.7178631,15.083586 12.4639219,15.7348645 14.4507424,15.77397 C15.1930231,15.7893786 15.8972514,16.195965 16.1413177,17.1068331 C16.4091955,18.1065663 15.8605957,18.9917151 14.8164299,19.2714985 C14.594267,19.3310269 14.3824147,19.3401698 14.1705623,19.3493128 C12.3630672,19.3574026 10.2127574,18.8858769 8.60945216,17.4343844 C7.98677018,19.5537624 6.37816858,21.1039195 4.78061786,21.9843976 C4.61479319,22.0764529 4.40453592,22.1804138 4.18237298,22.2399422 C3.13820716,22.5197256 2.22053148,22.0274641 1.95265377,21.0277309 Z M19.9574836,26.7279689 L15.3797512,9.64363886 C15.0761564,8.51060786 15.7326475,7.40605887 16.8434622,7.10841697 C17.9542769,6.81077507 19.0750894,7.43909701 19.3786841,8.57212801 L23.9564166,25.6564581 C24.2659641,26.8117054 23.6035202,27.8940381 22.4927055,28.19168 C21.3818908,28.4893219 20.2670312,27.8832162 19.9574836,26.7279689 Z M8.63503446,28.9046014 C8.71187944,27.5029524 8.70028664,26.4821705 8.51967905,25.3638079 L4.67626019,26.3936489 C3.83204101,26.6198568 2.93062879,26.0994262 2.71037378,25.2774233 C2.4782131,24.4109878 2.99864369,23.5095756 3.84286286,23.2833678 L15.8840942,20.0569296 C16.772746,19.818816 17.6519419,20.3451995 17.8841026,21.2116349 C18.1043576,22.0336378 17.6061433,22.9290972 16.7174915,23.1672107 L12.5630446,24.2803914 C12.8746146,25.8875125 13.0203599,27.5866888 12.8058594,29.0966566 C12.6413169,30.2598791 11.991519,30.7673509 11.1472998,30.9935588 C9.76988956,31.3626347 8.54192603,30.3344195 8.63503446,28.9046014 Z M25.7073975,14.3293076 C29.1040406,12.6095938 31.0453447,9.27968341 30.2952871,6.48043036 L30.0035981,5.39183196 C29.7654846,4.5031802 30.4398342,3.46528009 31.5950814,3.15573251 C32.7058961,2.85809061 33.7644175,3.43166935 34.002531,4.32032111 L34.2942201,5.40891952 C35.0442777,8.20817256 38.3904515,10.1213075 42.1918877,9.91230176 C43.0837295,9.86382427 43.8458912,10.3977556 44.072099,11.2419748 C44.3221182,12.1750591 43.7810664,13.1772422 42.847982,13.4272614 C42.692468,13.4689313 42.5087848,13.4943377 42.3917505,13.5018856 C38.7414706,13.7418232 35.6734851,12.778036 33.5805666,10.7433944 C32.7853669,13.551905 30.5880907,15.9265147 27.3291031,17.5379098 C27.2239745,17.5898902 27.052197,17.6597292 26.8966829,17.7013991 C25.9635986,17.9514183 24.9939424,17.3540282 24.7439232,16.4209439 C24.5177154,15.5767247 24.910801,14.7332458 25.7073975,14.3293076 Z M34.6981051,14.8252397 C35.7867035,14.5335506 36.8717989,15.0285748 37.1753937,16.1616058 L38.0980836,19.6051314 L44.6074577,17.8609498 C45.5627584,17.6049778 46.5205088,18.1579353 46.7645752,19.0688034 C47.0026887,19.9574551 46.4556841,20.9374219 45.5003834,21.1933939 L28.4604859,25.7592207 C27.5496179,26.0032871 26.5636982,25.4340661 26.3255847,24.5454144 C26.0815184,23.6345463 26.6566922,22.670843 27.5675602,22.4267766 L34.0991507,20.6766422 L33.1764608,17.2331167 C32.872866,16.1000857 33.5650741,15.1288344 34.6981051,14.8252397 Z M10.2778808,47.2991816 C9.41144531,47.5313423 8.53820222,47.0271751 8.30604154,46.1607397 C8.07388085,45.2943042 8.57804799,44.4210611 9.44448345,44.1889004 L13.0657394,43.2185878 L12.5597481,41.3302028 L11.2267705,41.6873731 C9.27173663,42.2112229 7.30542283,40.7379415 6.7220447,38.5607447 C6.13866658,36.3835479 7.10490358,34.1244918 9.05993746,33.6006421 L15.6581768,31.8326492 C17.6132106,31.3087995 19.5795244,32.7820808 20.1629026,34.9592777 C20.7462807,37.1364745 19.7800437,39.3955305 17.8250098,39.9193802 L16.5142485,40.2705977 L16.9785698,42.0034686 C18.1603912,41.6153665 19.3243541,41.1606154 20.4926747,40.6332627 C21.3233931,40.2678043 22.3001698,40.6251729 22.6434119,41.4618442 C22.9926069,42.3207317 22.5848529,43.2871978 21.8148305,43.6125814 C18.136496,45.1696606 14.4323278,46.1860009 10.2778808,47.2991816 Z M24.0262638,44.4010881 L20.710533,32.0266123 C20.4069382,30.8935813 21.0634293,29.7890323 22.174244,29.4913904 C23.2850587,29.1937485 24.4058712,29.8220705 24.7094659,30.9551015 L25.9000335,35.3983603 L27.0997134,35.076907 C27.9661489,34.8447463 28.839392,35.3489135 29.0715526,36.2153489 C29.3037133,37.0817844 28.7995462,37.9550275 27.9331107,38.1871882 L26.7334308,38.5086414 L28.0251967,43.3295772 C28.3347443,44.4848245 27.6723004,45.5671572 26.5614857,45.8647991 C25.450671,46.162441 24.3358114,45.5563354 24.0262638,44.4010881 Z M11.5288316,52.6787149 L10.7668683,49.8350292 C10.4692264,48.7242145 11.179293,47.8196122 12.2901077,47.5219703 C13.4009224,47.2243284 14.4681593,47.6527037 14.7658012,48.7635184 L15.2003584,50.3853078 L28.0413763,46.9445674 C28.9078118,46.7124068 29.7810549,47.2165739 30.0132156,48.0830094 C30.2453762,48.9494448 29.7412091,49.8226879 28.8747736,50.0548486 L13.9232078,54.0611086 C12.9456908,54.3230335 11.8383791,53.8339621 11.5288316,52.6787149 Z M10.6321124,37.5130452 C10.7928391,38.1128851 11.2614037,38.4397493 11.7501622,38.3087869 L15.6824462,37.2551345 C16.1712047,37.1241721 16.4135615,36.6068171 16.2528348,36.0069771 C16.0921082,35.4071372 15.6235436,35.080273 15.1347851,35.2112355 L11.2025011,36.2648878 C10.7137426,36.3958502 10.4713858,36.9132052 10.6321124,37.5130452 Z M34.7809418,36.9952239 L48.3328812,33.3639927 C49.1993167,33.131832 50.0725597,33.6359991 50.3047204,34.5024346 C50.5368811,35.3688701 50.032714,36.2421131 49.1662785,36.4742738 L33.1483305,40.7662701 C32.3041114,40.9924779 31.4308683,40.4883108 31.2046604,39.6440916 L29.9069417,34.8009395 C29.6807339,33.9567203 30.220618,33.216775 31.0648372,32.9905672 L44.4168299,29.4129115 L43.9882256,27.8133383 L30.569584,31.4088525 C29.7031485,31.6410132 28.8076891,31.1427989 28.5755285,30.2763634 C28.3433678,29.409928 28.8697512,28.530732 29.7361867,28.2985713 L45.6208369,24.0422921 C46.4650561,23.8160843 47.3382992,24.3202514 47.564507,25.1644706 L48.814603,29.8298923 C49.0467637,30.6963278 48.5366437,31.5473546 47.6702082,31.7795153 L34.3404318,35.3512181 L34.7809418,36.9952239 Z M32.2843756,46.7839247 C32.0403092,45.8730566 32.6214359,44.9315696 33.5323039,44.6875032 L35.9983126,44.0267382 L35.6173309,42.6048954 C35.3137362,41.4718644 36.0373035,40.7065126 37.1703345,40.4029179 C38.3033655,40.0993232 39.3126691,40.4003535 39.6162638,41.5333845 L39.9972455,42.9552273 L44.1294762,41.8479995 L43.7484945,40.4261566 C43.4448998,39.2931257 44.1684671,38.5277739 45.3014981,38.2241792 C46.4345291,37.9205844 47.4438327,38.2216148 47.7474275,39.3546458 L48.1284091,40.7764886 L50.5722014,40.1216764 C51.5275021,39.8657044 52.4792997,40.3964456 52.7233661,41.3073137 C52.9614796,42.1959654 52.4085221,43.1537159 51.4532215,43.4096879 L34.413324,47.9755147 C33.5024559,48.2195811 32.5224891,47.6725764 32.2843756,46.7839247 Z"/>
</svg>
