<svg xmlns="http://www.w3.org/2000/svg" xmlns:xlink="http://www.w3.org/1999/xlink" width="48" height="48" viewBox="0 0 48 48">
  <defs>
    <polygon id="ic_category_item_festival-a" points=".546 .762 16.843 .762 16.843 18 .546 18"/>
    <polygon id="ic_category_item_festival-c" points="0 .7 23.386 .7 23.386 24.086 0 24.086"/>
  </defs>
  <g fill="none" fill-rule="evenodd" transform="translate(12 5)">
    <path fill="#000" d="M8.9509 13.4663C8.5929 13.4663 8.3019 13.7573 8.3019 14.1163 8.3019 15.8873 9.7419 17.3273 11.5129 17.3273 13.2829 17.3273 14.7239 15.8873 14.7239 14.1163 14.7239 13.7573 14.4329 13.4663 14.0739 13.4663 13.7149 13.4663 13.4239 13.7573 13.4239 14.1163 13.4239 15.1703 12.5659 16.0283 11.5129 16.0283 10.4589 16.0283 9.6009 15.1703 9.6009 14.1163 9.6009 13.7573 9.3099 13.4663 8.9509 13.4663M8.9666 11.1528C9.5486 11.1528 10.0216 10.6808 10.0216 10.0988 10.0216 9.5168 9.5486 9.0458 8.9666 9.0458 8.3856 9.0458 7.9136 9.5168 7.9136 10.0988 7.9136 10.6808 8.3856 11.1528 8.9666 11.1528M14.4197 11.1528C15.0007 11.1528 15.4737 10.6808 15.4737 10.0988 15.4737 9.5168 15.0007 9.0458 14.4197 9.0458 13.8377 9.0458 13.3657 9.5168 13.3657 10.0988 13.3657 10.6808 13.8377 11.1528 14.4197 11.1528"/>
    <g transform="translate(3 20.3)">
      <mask id="ic_category_item_festival-b" fill="#fff">
        <use xlink:href="#ic_category_item_festival-a"/>
      </mask>
      <path fill="#000" d="M9.363,8.0581 C9.404,6.7301 9.319,5.3941 9.092,4.0661 C8.959,4.0711 8.828,4.0861 8.694,4.0861 L8.693,4.0861 C8.384,4.0861 8.08,4.0641 7.776,4.0391 C8.026,5.3901 8.109,6.7501 8.061,8.1021 L4.111,3.1491 C4.11,3.1491 4.109,3.1491 4.109,3.1481 C2.775,2.5781 1.571,1.7621 0.546,0.7641 L7.898,9.9841 C7.558,12.4501 6.744,14.8441 5.443,17.0161 C5.259,17.3251 5.359,17.7231 5.667,17.9081 C5.771,17.9701 5.886,18.0001 6,18.0001 C6.22,18.0001 6.437,17.8871 6.558,17.6841 C7.911,15.4251 8.774,12.9411 9.156,10.3811 C9.17,10.3671 9.19,10.3601 9.203,10.3441 L16.843,0.7621 C15.818,1.7611 14.613,2.5771 13.279,3.1481 L9.363,8.0581 Z" mask="url(#ic_category_item_festival-b)"/>
    </g>
    <g transform="translate(0 .3)">
      <mask id="ic_category_item_festival-d" fill="#fff">
        <use xlink:href="#ic_category_item_festival-c"/>
      </mask>
      <path fill="#4693FF" d="M1.2996,12.3931 C1.2996,6.6631 5.9626,2.0001 11.6936,2.0001 C17.4236,2.0001 22.0856,6.6631 22.0856,12.3931 C22.0856,15.1371 21.0086,17.6291 19.2656,19.4901 C19.1416,19.6221 19.0166,19.7511 18.8856,19.8771 C17.0176,21.6741 14.4846,22.7871 11.6936,22.7871 C8.9036,22.7871 6.3706,21.6751 4.5016,19.8791 C4.3706,19.7531 4.2456,19.6221 4.1206,19.4901 C2.3766,17.6301 1.2996,15.1381 1.2996,12.3931 M7.1116,23.1491 C8.2506,23.6361 9.4846,23.9391 10.7756,24.0391 L10.7766,24.0391 C11.0796,24.0641 11.3836,24.0861 11.6936,24.0861 C11.8276,24.0861 11.9576,24.0711 12.0906,24.0661 C13.5706,24.0161 14.9856,23.7011 16.2776,23.1481 C17.6116,22.5771 18.8166,21.7611 19.8426,20.7621 C22.0246,18.6371 23.3866,15.6721 23.3866,12.3931 C23.3866,5.9461 18.1406,0.7001 11.6936,0.7001 C5.2446,0.7001 -0.0004,5.9461 -0.0004,12.3931 C-0.0004,15.6711 1.3616,18.6351 3.5416,20.7601 C3.5426,20.7621 3.5446,20.7631 3.5456,20.7641 C4.5706,21.7621 5.7756,22.5781 7.1096,23.1481 C7.1096,23.1491 7.1106,23.1491 7.1116,23.1491" mask="url(#ic_category_item_festival-d)"/>
    </g>
  </g>
</svg>
