<svg xmlns="http://www.w3.org/2000/svg" width="18" height="18" viewBox="0 0 18 18">
  <path d="M4.5,2.5 L5.91666667,2.5 C7.02123617,2.5 7.91666667,3.3954305 7.91666667,4.5 L7.91666667,5.91666667 C7.91666667,7.02123617 7.02123617,7.91666667 5.91666667,7.91666667 L4.5,7.91666667 C3.3954305,7.91666667 2.5,7.02123617 2.5,5.91666667 L2.5,4.5 C2.5,3.3954305 3.3954305,2.5 4.5,2.5 Z M12.0833333,2.5 L13.5,2.5 C14.6045695,2.5 15.5,3.3954305 15.5,4.5 L15.5,5.91666667 C15.5,7.02123617 14.6045695,7.91666667 13.5,7.91666667 L12.0833333,7.91666667 C10.9787638,7.91666667 10.0833333,7.02123617 10.0833333,5.91666667 L10.0833333,4.5 C10.0833333,3.3954305 10.9787638,2.5 12.0833333,2.5 Z M4.5,10.0833333 L5.91666667,10.0833333 C7.02123617,10.0833333 7.91666667,10.9787638 7.91666667,12.0833333 L7.91666667,13.5 C7.91666667,14.6045695 7.02123617,15.5 5.91666667,15.5 L4.5,15.5 C3.3954305,15.5 2.5,14.6045695 2.5,13.5 L2.5,12.0833333 C2.5,10.9787638 3.3954305,10.0833333 4.5,10.0833333 Z M12.0833333,10.0833333 L13.5,10.0833333 C14.6045695,10.0833333 15.5,10.9787638 15.5,12.0833333 L15.5,13.5 C15.5,14.6045695 14.6045695,15.5 13.5,15.5 L12.0833333,15.5 C10.9787638,15.5 10.0833333,14.6045695 10.0833333,13.5 L10.0833333,12.0833333 C10.0833333,10.9787638 10.9787638,10.0833333 12.0833333,10.0833333 Z"/>
</svg>
