<svg xmlns="http://www.w3.org/2000/svg" xmlns:xlink="http://www.w3.org/1999/xlink" width="48" height="48" viewBox="0 0 48 48">
  <defs>
    <polygon id="ic_category_item_tour-a" points="0 .99 39.011 .99 39.011 16 0 16"/>
  </defs>
  <g fill="none" fill-rule="evenodd" transform="translate(4 16)">
    <path fill="#4693FF" d="M7.5054 12.0003C5.5774 12.0003 4.0114 10.4323 4.0114 8.5053 4.0114 6.5783 5.5774 5.0103 7.5054 5.0103 9.4334 5.0103 10.9994 6.5783 10.9994 8.5053 10.9994 10.4323 9.4334 12.0003 7.5054 12.0003M7.5054 3.7103C4.8604 3.7103 2.7104 5.8613 2.7104 8.5053 2.7104 11.1483 4.8604 13.3003 7.5054 13.3003 10.1504 13.3003 12.3004 11.1483 12.3004 8.5053 12.3004 5.8613 10.1504 3.7103 7.5054 3.7103M31.5054 12.0003C29.5774 12.0003 28.0114 10.4323 28.0114 8.5053 28.0114 6.5783 29.5774 5.0103 31.5054 5.0103 33.4334 5.0103 34.9994 6.5783 34.9994 8.5053 34.9994 10.4323 33.4334 12.0003 31.5054 12.0003M31.5054 3.7103C28.8604 3.7103 26.7104 5.8613 26.7104 8.5053 26.7104 11.1483 28.8604 13.3003 31.5054 13.3003 34.1504 13.3003 36.3004 11.1483 36.3004 8.5053 36.3004 5.8613 34.1504 3.7103 31.5054 3.7103"/>
    <g transform="translate(0 .01)">
      <mask id="ic_category_item_tour-b" fill="#fff">
        <use xlink:href="#ic_category_item_tour-a"/>
      </mask>
      <path fill="#000" d="M31.5054,14.7 C28.0834,14.7 25.3004,11.917 25.3004,8.495 C25.3004,5.073 28.0834,2.29 31.5054,2.29 C34.9274,2.29 37.7104,5.073 37.7104,8.495 C37.7104,11.917 34.9274,14.7 31.5054,14.7 M24.0304,9.107 L23.2344,9.276 C22.9524,6.008 24.3064,4.111 24.9374,3.418 L25.6454,3.818 C24.6184,5.102 23.9994,6.726 23.9994,8.495 C23.9994,8.701 24.0144,8.904 24.0304,9.107 M22.0294,6.777 L17.2714,6.777 C17.1034,5.744 16.7934,4.887 16.4464,4.202 C17.0204,3.774 18.2104,3.046 19.7204,3.046 C21.2474,3.046 22.3584,3.81 22.8454,4.221 C22.5024,4.902 22.1954,5.753 22.0294,6.777 M16.0664,9.276 L14.9834,9.046 C14.9964,8.863 15.0114,8.681 15.0114,8.495 C15.0114,6.778 14.4254,5.2 13.4514,3.933 L14.3624,3.419 C14.9874,4.115 16.3434,6.023 16.0664,9.276 M7.5054,14.7 C4.0834,14.7 1.3004,11.917 1.3004,8.495 C1.3004,5.073 4.0834,2.29 7.5054,2.29 C10.9274,2.29 13.7104,5.073 13.7104,8.495 C13.7104,11.917 10.9274,14.7 7.5054,14.7 M31.5054,0.99 C29.6174,0.99 27.8964,1.696 26.5754,2.85 L25.1514,2.046 C24.9194,1.915 24.6304,1.938 24.4214,2.107 C24.3774,2.144 23.9864,2.476 23.5274,3.103 C22.8314,2.55 21.5204,1.746 19.7204,1.746 C17.9244,1.746 16.5184,2.549 15.7664,3.093 C15.3104,2.472 14.9234,2.144 14.8784,2.107 C14.6714,1.938 14.3824,1.915 14.1484,2.046 L12.5464,2.951 C11.2134,1.737 9.4464,0.99 7.5054,0.99 C3.3664,0.99 -0.0006,4.356 -0.0006,8.495 C-0.0006,12.634 3.3664,16 7.5054,16 C11.0094,16 13.9514,13.583 14.7744,10.33 L16.4934,10.696 C16.5364,10.706 16.5834,10.71 16.6284,10.71 C16.7594,10.71 16.8884,10.671 16.9994,10.595 C17.1464,10.492 17.2434,10.333 17.2714,10.156 C17.3824,9.407 17.4124,8.718 17.3934,8.077 L21.9074,8.077 C21.8884,8.718 21.9184,9.407 22.0304,10.156 C22.0564,10.333 22.1554,10.492 22.3024,10.595 C22.4114,10.671 22.5404,10.71 22.6734,10.71 C22.7184,10.71 22.7634,10.706 22.8084,10.696 L24.2514,10.389 C25.0944,13.612 28.0234,16 31.5054,16 C35.6444,16 39.0114,12.634 39.0114,8.495 C39.0114,4.356 35.6444,0.99 31.5054,0.99" mask="url(#ic_category_item_tour-b)"/>
    </g>
    <path fill="#000" d="M18.6792,5.1043 C18.6792,5.7003 19.1612,6.1843 19.7582,6.1843 C20.3552,6.1843 20.8372,5.7003 20.8372,5.1043 C20.8372,4.5083 20.3552,4.0243 19.7582,4.0243 C19.1612,4.0243 18.6792,4.5083 18.6792,5.1043"/>
  </g>
</svg>
