<svg xmlns="http://www.w3.org/2000/svg" width="48" height="48" viewBox="0 0 48 48">
  <path d="M36.208,15.596 C36.208,16.2306698 36.1053344,16.818664 35.9,17.36 C35.6946656,17.901336 35.3820021,18.3726647 34.962,18.774 C34.5419979,19.1753353 34.0146698,19.4926655 33.38,19.726 C32.7453302,19.9593345 31.9893377,20.076 31.112,20.076 L26.828,20.076 L26.828,21.28 L35.088,21.28 C35.8346704,21.28 36.3573318,21.4666648 36.656,21.84 C36.9546682,22.2133352 37.104,22.6426642 37.104,23.128 C37.104,23.6320025 36.9500015,24.0613316 36.642,24.416 C36.3339985,24.7706684 35.8160036,24.948 35.088,24.948 L12.912,24.948 C12.1839964,24.948 11.6660015,24.7706684 11.358,24.416 C11.0499985,24.0613316 10.896,23.6320025 10.896,23.128 C10.896,22.6426642 11.0453318,22.2133352 11.344,21.84 C11.6426682,21.4666648 12.1653296,21.28 12.912,21.28 L21.172,21.28 L21.172,20.076 L16.888,20.076 C16.0106623,20.076 15.2546698,19.9593345 14.62,19.726 C13.9853302,19.4926655 13.4580021,19.1753353 13.038,18.774 C12.6179979,18.3726647 12.3053344,17.901336 12.1,17.36 C11.8946656,16.818664 11.792,16.2306698 11.792,15.596 C11.792,14.9613302 11.8946656,14.373336 12.1,13.832 C12.3053344,13.290664 12.6179979,12.8193353 13.038,12.418 C13.4580021,12.0166647 13.9853302,11.6993345 14.62,11.466 C15.2546698,11.2326655 16.0106623,11.116 16.888,11.116 L31.112,11.116 C31.9893377,11.116 32.7453302,11.2326655 33.38,11.466 C34.0146698,11.6993345 34.5419979,12.0166647 34.962,12.418 C35.3820021,12.8193353 35.6946656,13.290664 35.9,13.832 C36.1053344,14.373336 36.208,14.9613302 36.208,15.596 Z M15.208,37.128 C14.6106637,37.128 14.0880022,37.030001 13.64,36.834 C13.1919978,36.637999 12.8233348,36.3766683 12.534,36.05 C12.2446652,35.7233317 12.0300007,35.3453355 11.89,34.916 C11.7499993,34.4866645 11.68,34.0293358 11.68,33.544 L11.68,33.46 C11.68,32.4706617 11.9599972,31.6680031 12.52,31.052 C13.0800028,30.4359969 13.9759938,30.128 15.208,30.128 L30.188,30.128 L30.188,29.624 C30.188,29.3253318 29.992002,29.176 29.6,29.176 L13.556,29.176 C13.0333307,29.176 12.636668,29.0126683 12.366,28.686 C12.095332,28.3593317 11.96,28.0093352 11.96,27.636 C11.96,27.2626648 12.0859987,26.9080017 12.338,26.572 C12.5900013,26.2359983 12.9959972,26.068 13.556,26.068 L32.82,26.068 C34.0146726,26.068 34.8359978,26.2873311 35.284,26.726 C35.7320022,27.1646689 35.956,27.813329 35.956,28.672 L35.956,33.012 L18.232,33.012 C18.0266656,33.012 17.886667,33.0539996 17.812,33.138 C17.737333,33.2220004 17.7,33.3386659 17.7,33.488 C17.7,33.6373341 17.737333,33.7586662 17.812,33.852 C17.886667,33.9453338 18.0266656,33.992 18.232,33.992 L35.228,33.992 C35.769336,33.992 36.1566655,34.1553317 36.39,34.482 C36.6233345,34.8086683 36.74,35.167998 36.74,35.56 C36.74,35.8960017 36.6280011,36.2413316 36.404,36.596 C36.1799989,36.9506684 35.7880028,37.128 35.228,37.128 L15.208,37.128 Z M30.468,15.596 C30.468,15.3346654 30.3886675,15.1246675 30.23,14.966 C30.0713325,14.8073325 29.7773355,14.728 29.348,14.728 L18.652,14.728 C18.2226645,14.728 17.9286675,14.8073325 17.77,14.966 C17.6113325,15.1246675 17.532,15.3346654 17.532,15.596 C17.532,15.8573346 17.6113325,16.0673325 17.77,16.226 C17.9286675,16.3846675 18.2226645,16.464 18.652,16.464 L29.348,16.464 C29.7773355,16.464 30.0713325,16.3846675 30.23,16.226 C30.3886675,16.0673325 30.468,15.8573346 30.468,15.596 Z"/>
</svg>
