<svg xmlns="http://www.w3.org/2000/svg" xmlns:xlink="http://www.w3.org/1999/xlink" width="48" height="48" viewBox="0 0 48 48">
  <defs>
    <polygon id="ic_category_item_leports_on_the_water-a" points="0 .722 49.3 .722 49.3 4 0 4"/>
  </defs>
  <g fill="none" fill-rule="evenodd" transform="translate(-1 8)">
    <path fill="#000" d="M22.6169 4.5459C21.8179 4.5459 21.1679 5.1959 21.1679 5.9959 21.1679 6.3549 21.4589 6.6459 21.8169 6.6459 22.1769 6.6459 22.4679 6.3549 22.4679 5.9959 22.4679 5.8309 22.7669 5.8309 22.7669 5.9959 22.7669 6.3549 23.0579 6.6459 23.4169 6.6459 23.7759 6.6459 24.0669 6.3549 24.0669 5.9959 24.0669 5.1959 23.4169 4.5459 22.6169 4.5459M16.8875 14.2115C16.8875 13.5495 17.4255 13.0115 18.0865 13.0115L24.4425 13.0115C24.8015 13.0115 25.0925 12.7205 25.0925 12.3615 25.0925 12.0035 24.8015 11.7115 24.4425 11.7115L18.0865 11.7115C17.4255 11.7115 16.8875 11.1735 16.8875 10.5125 16.8875 9.8515 17.4255 9.3135 18.0865 9.3135L24.3875 9.3135C26.0695 9.3135 27.4365 10.6805 27.4365 12.3615 27.4365 14.0435 26.0695 15.4115 24.3875 15.4115L18.0865 15.4115C17.4255 15.4115 16.8875 14.8735 16.8875 14.2115M17.6835 16.6695C17.8155 16.6915 17.9495 16.7115 18.0865 16.7115L18.6465 16.7115 24.4425 16.7115 24.4425 16.7055C26.8145 16.6755 28.7375 14.7415 28.7375 12.3615 28.7375 9.9635 26.7855 8.0135 24.3875 8.0135L18.6465 8.0135 18.0865 8.0135C17.9495 8.0135 17.8155 8.0325 17.6835 8.0545 17.5685 8.0755 17.4555 8.1035 17.3465 8.1385 16.3315 8.4565 15.5875 9.3945 15.5875 10.5125 15.5875 11.2485 15.9135 11.9035 16.4215 12.3615 15.9135 12.8195 15.5875 13.4755 15.5875 14.2115 15.5875 15.3305 16.3315 16.2685 17.3465 16.5865 17.4555 16.6205 17.5685 16.6485 17.6835 16.6695M26.6531 6.7246C27.2761 6.7246 27.7811 6.2196 27.7811 5.5956 27.7811 4.9726 27.2761 4.4676 26.6531 4.4676 26.0291 4.4676 25.5241 4.9726 25.5241 5.5956 25.5241 6.2196 26.0291 6.7246 26.6531 6.7246"/>
    <g transform="translate(0 27.385)">
      <mask id="ic_category_item_leports_on_the_water-b" fill="#fff">
        <use xlink:href="#ic_category_item_leports_on_the_water-a"/>
      </mask>
      <path fill="#4693FF" d="M48.6501,0.7222 C46.9551,0.7222 46.0711,1.3052 45.2921,1.8182 C44.5741,2.2912 43.9541,2.7002 42.6491,2.7002 C42.3421,2.7002 42.0781,2.6762 41.8371,2.6362 L40.5301,2.0952 C40.3811,2.0052 40.2401,1.9112 40.0981,1.8172 C39.3181,1.3042 38.4341,0.7222 36.7391,0.7222 C36.7201,0.7222 36.7061,0.7232 36.6871,0.7242 C36.6731,0.7232 36.6621,0.7222 36.6481,0.7222 C34.9531,0.7222 34.0701,1.3052 33.2911,1.8182 C32.5831,2.2842 31.9661,2.6872 30.6991,2.6982 C29.4231,2.6892 28.8071,2.2862 28.0971,1.8182 C27.3191,1.3042 26.4351,0.7222 24.7411,0.7222 C24.7221,0.7222 24.7081,0.7232 24.6891,0.7242 C24.6751,0.7232 24.6641,0.7222 24.6501,0.7222 C22.9551,0.7222 22.0711,1.3052 21.2921,1.8182 C20.5841,2.2842 19.9681,2.6872 18.7001,2.6982 C17.4231,2.6892 16.8061,2.2852 16.0971,1.8182 C15.3171,1.3042 14.4341,0.7222 12.7391,0.7222 C12.7211,0.7222 12.7061,0.7232 12.6881,0.7242 C12.6731,0.7232 12.6621,0.7222 12.6481,0.7222 C11.0141,0.7222 10.1361,1.2632 9.3771,1.7622 L8.2221,2.4222 C7.8071,2.5912 7.3191,2.7002 6.6481,2.7002 C5.3431,2.7002 4.7241,2.2912 4.0061,1.8182 C3.2271,1.3052 2.3441,0.7222 0.6501,0.7222 C0.2911,0.7222 0.0001,1.0132 0.0001,1.3722 C0.0001,1.7312 0.2911,2.0222 0.6501,2.0222 C1.9551,2.0222 2.5741,2.4302 3.2911,2.9042 C4.0701,3.4172 4.9541,4.0002 6.6481,4.0002 C7.9621,4.0002 8.7881,3.6492 9.4561,3.2512 C9.5341,3.2372 9.6111,3.2132 9.6811,3.1702 C9.8211,3.0832 9.9581,2.9932 10.0931,2.9042 C10.8021,2.4372 11.4191,2.0342 12.6871,2.0232 C13.9641,2.0322 14.5811,2.4352 15.2911,2.9042 C16.0701,3.4172 16.9541,4.0002 18.6481,4.0002 C18.6671,4.0002 18.6811,3.9982 18.7001,3.9972 C18.7131,3.9972 18.7251,3.9992 18.7401,3.9992 C20.4351,3.9992 21.3181,3.4172 22.0981,2.9032 C22.8051,2.4372 23.4211,2.0342 24.6891,2.0232 C25.9651,2.0322 26.5821,2.4352 27.2921,2.9042 C28.0701,3.4172 28.9541,4.0002 30.6481,4.0002 C30.6661,4.0002 30.6811,3.9982 30.6991,3.9972 C30.7131,3.9982 30.7241,3.9992 30.7391,3.9992 C32.4341,3.9992 33.3171,3.4172 34.0961,2.9032 C34.8031,2.4372 35.4201,2.0342 36.6871,2.0232 C37.9631,2.0322 38.5811,2.4352 39.2911,2.9042 C40.0701,3.4172 40.9541,4.0002 42.6491,4.0002 C44.3441,4.0002 45.2271,3.4172 46.0061,2.9042 C46.7241,2.4302 47.3441,2.0222 48.6501,2.0222 C49.0091,2.0222 49.3001,1.7312 49.3001,1.3722 C49.3001,1.0132 49.0091,0.7222 48.6501,0.7222" mask="url(#ic_category_item_leports_on_the_water-b)"/>
    </g>
    <path fill="#000" d="M7.9265,25.5982 C7.9265,22.7932 10.2085,20.5122 13.0135,20.5122 L17.3465,20.5122 L18.6465,20.5122 L31.6275,20.5122 L32.9285,20.5122 L37.2615,20.5122 C40.0665,20.5122 42.3475,22.7932 42.3475,25.5982 C42.3475,27.0902 41.6745,28.5142 40.5305,29.4802 L41.8365,30.0202 C42.9805,28.8372 43.6485,27.2562 43.6485,25.5982 C43.6485,22.0772 40.7825,19.2122 37.2615,19.2122 L32.9285,19.2122 L32.9285,7.7902 C32.9285,3.4942 29.4335,0.0002 25.1375,0.0002 C20.8415,0.0002 17.3465,3.4942 17.3465,7.7902 L17.3465,8.1382 C17.4555,8.1032 17.5685,8.0762 17.6835,8.0542 C17.8145,8.0292 17.9475,8.0132 18.0865,8.0132 L18.6465,8.0132 L18.6465,7.7902 C18.6465,4.2112 21.5585,1.3002 25.1375,1.3002 C28.7165,1.3002 31.6275,4.2112 31.6275,7.7902 L31.6275,19.2122 L18.6465,19.2122 L18.6465,16.7112 L18.0865,16.7112 C17.9475,16.7112 17.8145,16.6952 17.6835,16.6702 C17.5685,16.6482 17.4555,16.6202 17.3465,16.5862 L17.3465,19.2122 L13.0135,19.2122 C9.4915,19.2122 6.6265,22.0772 6.6265,25.5982 C6.6265,27.1632 7.2035,28.6482 8.2225,29.8062 L9.3765,29.1462 C8.4515,28.2002 7.9265,26.9342 7.9265,25.5982"/>
  </g>
</svg>
