<svg xmlns="http://www.w3.org/2000/svg" xmlns:xlink="http://www.w3.org/1999/xlink" width="48" height="48" viewBox="0 0 48 48">
  <defs>
    <polygon id="ic_category_item_themepark-a" points=".43 .228 1.731 .228 1.731 13 .43 13"/>
  </defs>
  <g fill="none" fill-rule="evenodd" transform="translate(5 3)">
    <path fill="#000" d="M35.2829,14.353 C34.7439,14.643 34.3979,14.458 34.2179,14.324 C34.1539,14.268 34.0659,14.217 33.9859,14.19 L32.1799,13.57 C31.6639,13.392 31.1069,13.495 30.6889,13.846 C30.2719,14.195 30.0729,14.726 30.1569,15.266 C30.4559,17.168 30.5559,20.763 27.8779,23.472 C26.9849,24.374 26.8099,25.782 27.4699,26.921 L31.5029,33.208 C31.6609,33.482 31.7049,33.716 31.6379,33.923 C31.5469,34.208 31.2309,34.484 30.7519,34.7 C29.8529,35.104 28.0429,35.005 27.8059,34.603 L25.2129,28.673 C24.6989,27.781 23.7399,27.228 22.6989,27.228 L22.6949,27.228 L15.3689,27.228 C15.0389,27.228 14.6979,27.183 14.3579,27.096 C14.0929,27.026 13.7429,27.159 13.5899,27.39 L12.9149,28.409 C12.4189,29.159 12.0759,29.984 11.8949,30.861 L11.0669,34.899 C11.0569,35.032 11.0299,35.202 10.9579,35.258 C10.8119,35.371 10.3329,35.452 8.8929,35.192 C8.2519,35.077 7.4789,34.609 7.3039,34.231 C7.2619,34.139 7.2749,34.102 7.3409,33.977 L9.3359,29.093 L10.3159,27.199 L11.5029,25.344 C11.6219,25.165 11.6509,24.887 11.5699,24.688 C11.3959,24.26 11.0689,22.948 10.9189,21.487 C10.8649,20.959 10.5209,20.521 10.0229,20.344 C9.8739,20.291 9.7209,20.265 9.5689,20.265 C9.2199,20.265 8.8799,20.402 8.6209,20.662 L5.3229,23.96 C4.0339,25.25 3.0899,25.118 1.2809,23.458 C1.9919,23.345 2.6359,23.005 3.1939,22.447 C4.0559,21.583 6.8869,18.786 6.8889,18.783 C8.2359,17.435 9.1639,17.461 10.1389,17.912 C10.7639,18.2 11.4679,18.173 12.0189,17.84 C12.6549,17.454 13.6219,17.259 14.8919,17.259 L19.2719,17.259 C21.2209,17.259 22.9159,16.007 23.4879,14.144 L25.3189,8.169 C25.3589,8.069 25.4029,7.973 25.4489,7.88 C25.9509,6.865 26.7659,6.399 27.3709,6.185 C27.6259,6.09 27.8339,5.792 27.8339,5.52 L27.8339,5.158 C27.8339,4.781 28.1199,4.392 28.5139,4.275 C28.5159,4.363 28.5159,4.472 28.5149,4.584 L28.5149,5.359 C28.5149,5.686 28.7599,5.962 29.0839,6.004 C29.7299,6.085 30.3419,6.331 30.8519,6.712 L31.1499,6.936 C31.6199,7.289 32.1039,7.654 32.6259,7.976 L35.5469,9.781 C35.5829,9.803 35.6209,9.822 35.6609,9.837 C36.3709,10.103 36.7579,10.617 36.8089,11.367 C36.8859,12.478 36.1719,13.873 35.2829,14.353 M36.1789,8.643 L33.3089,6.87 C32.8389,6.579 32.3979,6.248 31.9319,5.897 L31.6299,5.67 C31.0929,5.269 30.4729,4.979 29.8159,4.819 L29.8159,4.504 C29.8169,4.063 29.8189,3.564 29.4329,3.217 C29.1899,2.999 28.8609,2.909 28.4469,2.955 C27.4029,3.069 26.5519,4.037 26.5339,5.122 C25.5529,5.572 24.7619,6.334 24.2829,7.305 C24.2209,7.43 24.1639,7.557 24.0949,7.737 L22.2459,13.762 C21.8419,15.076 20.6459,15.959 19.2719,15.959 L18.4299,15.959 L14.8919,15.959 C13.3599,15.959 12.1999,16.21 11.3459,16.728 C11.1599,16.838 10.9189,16.84 10.6839,16.731 C9.0089,15.96 7.5129,16.32 5.9719,17.861 C5.9719,17.861 3.1379,20.663 2.2749,21.527 C1.9149,21.887 1.5119,22.105 1.0769,22.174 C0.5939,22.25 0.2039,22.586 0.0579,23.051 C-0.0851,23.511 0.0429,24.003 0.3909,24.336 C1.4519,25.35 3.6559,27.462 6.2429,24.879 L9.6259,21.62 C9.7589,22.911 10.0269,24.156 10.2589,24.876 L9.1909,26.549 L8.1569,28.548 L6.1769,33.406 C5.9299,33.832 5.9119,34.319 6.1249,34.778 C6.5309,35.654 7.7349,36.305 8.6629,36.472 C9.3159,36.589 9.8829,36.665 10.3669,36.665 C10.9419,36.665 11.4019,36.559 11.7539,36.286 C12.1209,36.002 12.3199,35.58 12.3519,35.079 L13.1689,31.123 C13.3149,30.409 13.5949,29.737 13.9989,29.127 L14.4499,28.445 C14.7589,28.5 15.0659,28.528 15.3689,28.528 L18.4299,28.528 L19.7309,28.528 L22.7089,28.528 L22.7109,28.528 C23.2769,28.528 23.8039,28.832 24.0539,29.258 L26.6479,35.188 C27.4269,36.537 30.1309,36.404 31.2849,35.885 C32.1159,35.512 32.6659,34.971 32.8759,34.322 C33.0019,33.931 33.0609,33.308 32.6119,32.532 L28.5789,26.245 C28.2279,25.638 28.3199,24.874 28.8019,24.386 C31.8829,21.271 31.7779,17.208 31.4419,15.065 C31.4239,14.947 31.4859,14.874 31.5239,14.842 C31.5629,14.81 31.6389,14.759 31.7589,14.799 L33.4749,15.388 C34.2029,15.897 35.0789,15.939 35.8999,15.497 C37.2489,14.769 38.2189,12.916 38.1059,11.278 C38.0199,10.033 37.3369,9.1 36.1789,8.643"/>
    <g transform="translate(18 28.3)">
      <mask id="ic_category_item_themepark-b" fill="#fff">
        <use xlink:href="#ic_category_item_themepark-a"/>
      </mask>
      <path fill="#4693FF" d="M0.4303,12.3501 C0.4303,12.7091 0.7213,13.0001 1.0803,13.0001 C1.4403,13.0001 1.7313,12.7091 1.7313,12.3501 L1.7313,0.2281 L0.4303,0.2281 L0.4303,12.3501 Z" mask="url(#ic_category_item_themepark-b)"/>
    </g>
    <path fill="#4693FF" d="M19.7311,15.9224 L19.7311,0.6504 C19.7311,0.2914 19.4401,0.0004 19.0811,0.0004 C18.7211,0.0004 18.4301,0.2914 18.4301,0.6504 L18.4301,15.9594 L19.2721,15.9594 C19.4271,15.9594 19.5811,15.9444 19.7311,15.9224"/>
    <path fill="#000" d="M29.7897,7.2158 C29.1867,7.2158 28.6977,7.7048 28.6977,8.3078 C28.6977,8.9108 29.1867,9.4008 29.7897,9.4008 C30.3937,9.4008 30.8827,8.9108 30.8827,8.3078 C30.8827,7.7048 30.3937,7.2158 29.7897,7.2158"/>
  </g>
</svg>
