<svg xmlns="http://www.w3.org/2000/svg" xmlns:xlink="http://www.w3.org/1999/xlink" width="48" height="48" viewBox="0 0 48 48">
  <defs>
    <polygon id="ic_category_item_waterpark-a" points="11 13.751 23.853 13.751 23.853 45.3 11 45.3"/>
    <polygon id="ic_category_item_waterpark-c" points="20.751 4 33.604 4 33.604 35.549 20.751 35.549"/>
  </defs>
  <g fill="none" fill-rule="evenodd">
    <polygon fill="#4693FF" points="32.304 17.02 32.304 15.182 23.853 23.634 23.853 25.471"/>
    <polygon fill="#4693FF" points="23.853 33.354 23.853 35.192 32.304 26.741 32.304 24.903"/>
    <mask id="ic_category_item_waterpark-b" fill="#fff">
      <use xlink:href="#ic_category_item_waterpark-a"/>
    </mask>
    <path fill="#000" d="M23.853,25.4717 L23.853,23.6337 L23.853,20.1777 C23.853,16.6337 20.97,13.7507 17.427,13.7507 C13.882,13.7507 10.999,16.6337 10.999,20.1777 C10.999,20.5367 11.29,20.8277 11.65,20.8277 C12.009,20.8277 12.3,20.5367 12.3,20.1777 C12.3,17.3507 14.599,15.0507 17.427,15.0507 C20.253,15.0507 22.554,17.3507 22.554,20.1777 L22.554,44.6497 C22.554,45.0087 22.845,45.2997 23.204,45.2997 C23.562,45.2997 23.853,45.0087 23.853,44.6497 L23.853,35.1917 L23.853,33.3537 L23.853,25.4717 Z" mask="url(#ic_category_item_waterpark-b)"/>
    <mask id="ic_category_item_waterpark-d" fill="#fff">
      <use xlink:href="#ic_category_item_waterpark-c"/>
    </mask>
    <path fill="#000" d="M27.1772,4 C23.6342,4 20.7512,6.883 20.7512,10.427 C20.7512,10.786 21.0422,11.077 21.4012,11.077 C21.7592,11.077 22.0502,10.786 22.0502,10.427 C22.0502,7.6 24.3512,5.3 27.1772,5.3 C30.0052,5.3 32.3042,7.6 32.3042,10.427 L32.3042,15.183 L32.3042,17.021 L32.3042,24.903 L32.3042,26.741 L32.3042,34.899 C32.3042,35.258 32.5952,35.549 32.9542,35.549 C33.3142,35.549 33.6052,35.258 33.6052,34.899 L33.6052,10.427 C33.6052,6.883 30.7222,4 27.1772,4" mask="url(#ic_category_item_waterpark-d)"/>
  </g>
</svg>
