<svg xmlns="http://www.w3.org/2000/svg" xmlns:xlink="http://www.w3.org/1999/xlink" width="48" height="48" viewBox="0 0 48 48">
  <defs>
    <polygon id="ic_category_item_extream-a" points=".265 .7 12.044 .7 12.044 2 .265 2"/>
    <polygon id="ic_category_item_extream-c" points="0 .7 34.465 .7 34.465 35 0 35"/>
  </defs>
  <g fill="none" fill-rule="evenodd" transform="translate(7 6)">
    <g transform="translate(7 33.3)">
      <mask id="ic_category_item_extream-b" fill="#fff">
        <use xlink:href="#ic_category_item_extream-a"/>
      </mask>
      <path fill="#4693FF" d="M10.3978,0.6997 L0.9148,0.6997 C0.5558,0.6997 0.2648,0.9907 0.2648,1.3497 C0.2648,1.7097 0.5558,2.0007 0.9148,2.0007 L12.0438,2.0007 C11.8778,2.0007 11.7198,1.9377 11.5998,1.8247 L10.3978,0.6997 Z" mask="url(#ic_category_item_extream-b)"/>
    </g>
    <path fill="#4693FF" d="M11.8333,28.7944 L0.6493,28.7944 C0.2913,28.7944 0.0003,29.0854 0.0003,29.4444 C0.0003,29.8034 0.2913,30.0944 0.6493,30.0944 L13.2233,30.0944 L11.8333,28.7944 Z"/>
    <g transform="translate(0 .3)">
      <mask id="ic_category_item_extream-d" fill="#fff">
        <use xlink:href="#ic_category_item_extream-c"/>
      </mask>
      <path fill="#000" d="M33.1653,29.3276 L20.7483,29.3276 L4.8533,13.8676 L10.0953,8.7116 L11.4653,9.0346 C12.0473,12.9876 15.2653,16.0826 19.2813,16.4756 L23.2693,16.8656 L25.4443,22.5216 L22.8663,25.2716 C22.6213,25.5336 22.6343,25.9446 22.8953,26.1896 C23.0213,26.3076 23.1813,26.3656 23.3413,26.3656 C23.5143,26.3656 23.6863,26.2976 23.8143,26.1606 L26.4793,23.3196 L27.7223,23.3196 C31.6873,23.3196 33.1653,26.1916 33.1653,28.0016 L33.1653,29.3276 Z M33.1653,33.6996 L19.3003,33.6996 L1.5853,17.1276 L3.9303,14.7826 L20.0313,30.4436 C20.1523,30.5606 20.3143,30.6276 20.4843,30.6276 L33.1653,30.6276 L33.1653,33.6996 Z M19.3883,2.2696 L25.9603,8.8416 L23.5393,11.2636 L22.7993,11.0656 C21.0033,10.5856 19.1213,11.3906 18.2283,13.0266 L17.3433,14.6506 C14.9493,13.6796 13.1703,11.5216 12.7643,8.8936 L19.3883,2.2696 Z M23.4833,15.5796 L19.4073,15.1816 C19.1353,15.1546 18.8673,15.1096 18.6043,15.0526 L19.3703,13.6486 C19.9743,12.5426 21.2443,11.9956 22.4643,12.3216 L22.4773,12.3246 L23.9283,12.7126 L24.9373,12.9816 L23.4833,15.5796 Z M27.7223,22.0196 L26.6443,22.0196 L24.3383,16.0236 L24.4953,16.4336 L26.1373,13.5006 C26.3183,13.1756 26.3403,12.7926 26.1943,12.4496 C26.0503,12.1076 25.7613,11.8556 25.4013,11.7606 L24.9903,11.6506 L27.3393,9.3016 C27.5933,9.0476 27.5933,8.6366 27.3393,8.3826 L19.8483,0.8906 C19.5943,0.6366 19.1833,0.6366 18.9293,0.8906 L11.9953,7.8236 L10.0443,7.3636 C9.8273,7.3116 9.5983,7.3766 9.4393,7.5336 L3.5383,13.3366 C3.5373,13.3376 3.5363,13.3376 3.5353,13.3386 L0.1903,16.6836 C0.0653,16.8076 -0.0027,16.9776 0.0003,17.1536 C0.0033,17.3296 0.0773,17.4976 0.2063,17.6176 L11.8333,28.4946 L13.2233,29.7946 L17.3973,33.6996 L18.6003,34.8246 C18.7203,34.9376 18.8783,35.0006 19.0433,35.0006 L33.8153,35.0006 C34.1743,35.0006 34.4653,34.7096 34.4653,34.3496 L34.4653,29.9766 L34.4653,28.0016 C34.4653,25.1016 32.1023,22.0196 27.7223,22.0196 Z" mask="url(#ic_category_item_extream-d)"/>
    </g>
  </g>
</svg>
