<svg xmlns="http://www.w3.org/2000/svg" xmlns:xlink="http://www.w3.org/1999/xlink" width="48" height="48" viewBox="0 0 48 48">
  <defs>
    <polygon id="ic_category_item_kids-a" points=".151 .716 29.293 .716 29.293 26.169 .151 26.169"/>
  </defs>
  <g fill="none" fill-rule="evenodd" transform="translate(9 9)">
    <path fill="#000" d="M14.6503,28.9838 C8.0063,28.9838 2.4973,24.1008 1.4823,17.7388 L2.9573,17.7388 C3.8963,17.7388 4.6603,16.9748 4.6603,16.0358 C4.6603,15.6768 4.3693,15.3858 4.0093,15.3858 C3.6513,15.3858 3.3603,15.6768 3.3603,16.0358 C3.3603,16.2548 3.1753,16.4388 2.9573,16.4388 L1.3403,16.4388 C1.3243,16.1708 1.2993,15.9058 1.2993,15.6338 C1.2993,12.1868 2.6243,9.0508 4.7763,6.6798 L3.8583,5.7608 C1.4703,8.3688 0.0003,11.8288 0.0003,15.6338 C0.0003,23.7128 6.5723,30.2838 14.6503,30.2838 C18.4553,30.2838 21.9153,28.8138 24.5223,26.4258 L23.6033,25.5068 C21.2323,27.6598 18.0963,28.9838 14.6503,28.9838"/>
    <path fill="#000" d="M3.4091,14.4731 C3.9201,13.9611 4.8131,13.9611 5.3241,14.4731 C5.4511,14.6001 5.6181,14.6631 5.7841,14.6631 C5.9511,14.6631 6.1171,14.6001 6.2441,14.4741 C6.4981,14.2201 6.4981,13.8081 6.2441,13.5541 C5.2411,12.5511 3.4921,12.5511 2.4891,13.5541 C2.2361,13.8081 2.2361,14.2201 2.4901,14.4741 C2.7441,14.7271 3.1551,14.7271 3.4091,14.4731"/>
    <g transform="translate(0 .284)">
      <mask id="ic_category_item_kids-b" fill="#fff">
        <use xlink:href="#ic_category_item_kids-a"/>
      </mask>
      <path fill="#4693FF" d="M24.0897,5.9097 C29.1407,10.9617 29.2897,19.0867 24.5377,24.3187 L5.6807,5.4617 C10.9147,0.7097 19.0387,0.8597 24.0897,5.9097 M25.0087,4.9907 C19.4567,-0.5613 10.5297,-0.6993 4.7887,4.5417 L1.2607,1.0137 C1.0067,0.7597 0.5957,0.7597 0.3417,1.0137 C0.0877,1.2667 0.0877,1.6787 0.3417,1.9317 L3.8457,5.4357 L3.8307,5.4507 L3.8587,5.4767 L4.7767,6.3957 L23.6037,25.2227 L24.5227,26.1417 L24.5497,26.1687 L25.0087,25.7087 C30.7207,19.9967 30.7207,10.7027 25.0087,4.9907" mask="url(#ic_category_item_kids-b)"/>
    </g>
  </g>
</svg>
