<svg xmlns="http://www.w3.org/2000/svg" xmlns:xlink="http://www.w3.org/1999/xlink" width="48" height="48" viewBox="0 0 48 48">
  <defs>
    <polygon id="ic_category_item_indoor-a" points="0 .292 33.92 .292 33.92 11 0 11"/>
  </defs>
  <g fill="none" fill-rule="evenodd" transform="translate(7 10)">
    <path fill="#4693FF" d="M4.5479,11.7519 L4.5479,6.7729 C4.5479,5.8429 5.3059,5.0849 6.2369,5.0849 L27.6839,5.0849 C28.6139,5.0849 29.3709,5.8429 29.3709,6.7729 L29.3709,11.7519 C29.3709,12.6829 28.6139,13.4399 27.6839,13.4399 L6.2369,13.4399 C5.3059,13.4399 4.5479,12.6829 4.5479,11.7519 M25.5029,15.7099 L8.4169,15.7099 C7.4199,15.7099 6.5199,15.3209 5.8329,14.6989 C5.9659,14.7179 6.0989,14.7399 6.2369,14.7399 L27.6839,14.7399 C27.8209,14.7399 27.9539,14.7179 28.0869,14.6999 C27.4009,15.3209 26.4989,15.7099 25.5029,15.7099 M7.1209,16.8249 C7.3109,16.8699 7.5019,16.9099 7.6979,16.9369 C7.9359,16.9709 8.1709,17.0099 8.4169,17.0099 L25.5029,17.0099 C25.7489,17.0099 25.9849,16.9709 26.2209,16.9369 C26.4169,16.9099 26.6089,16.8699 26.7989,16.8249 C26.9849,16.7759 27.1709,16.7229 27.3489,16.6539 C27.4089,16.6309 27.4739,16.6179 27.5319,16.5919 C29.3759,15.8019 30.6719,13.9709 30.6719,11.8409 L30.6719,11.7519 L30.6719,8.0889 L30.6719,6.7729 C30.6719,5.1259 29.3309,3.7859 27.6839,3.7859 L25.0559,3.7859 L23.2569,3.7859 L10.6629,3.7859 L8.8639,3.7859 L6.2369,3.7859 C4.5889,3.7859 3.2489,5.1259 3.2489,6.7729 L3.2489,8.0889 L3.2489,11.7519 L3.2489,11.8409 C3.2489,13.9709 4.5439,15.8019 6.3879,16.5919 C6.4459,16.6179 6.5109,16.6309 6.5699,16.6539 C6.7489,16.7229 6.9339,16.7759 7.1209,16.8249"/>
    <g transform="translate(0 16.3)">
      <mask id="ic_category_item_indoor-b" fill="#fff">
        <use xlink:href="#ic_category_item_indoor-a"/>
      </mask>
      <path fill="#000" d="M27.4756,2.7192 L27.2746,2.7192 L27.2746,2.7202 C27.4386,1.9812 27.5326,1.2152 27.5326,0.4272 L27.5326,0.2922 C27.4736,0.3182 27.4096,0.3312 27.3486,0.3542 C27.1696,0.4212 26.9876,0.4812 26.7986,0.5252 C26.6086,0.5702 26.4166,0.6102 26.2206,0.6372 C26.1086,5.6532 22.0016,9.6992 16.9596,9.6992 C11.9176,9.6992 7.8116,5.6532 7.6986,0.6372 C7.5016,0.6102 7.3106,0.5702 7.1216,0.5252 C6.9326,0.4802 6.7496,0.4212 6.5706,0.3542 C6.5106,0.3312 6.4466,0.3182 6.3876,0.2922 L6.3876,0.4272 C6.3876,1.2152 6.4806,1.9802 6.6456,2.7192 L6.4446,2.7192 C2.8906,2.7192 -0.0004,5.6102 -0.0004,9.1632 C-0.0004,9.5222 0.2906,9.8132 0.6496,9.8132 C1.0086,9.8132 1.2996,9.5222 1.2996,9.1632 C1.2996,6.3262 3.6086,4.0192 6.4446,4.0192 L7.0296,4.0192 C8.5036,8.0832 12.3926,11.0002 16.9596,11.0002 C21.5276,11.0002 25.4156,8.0832 26.8906,4.0192 L27.4756,4.0192 C30.3116,4.0192 32.6196,6.3262 32.6196,9.1632 C32.6196,9.5222 32.9106,9.8132 33.2696,9.8132 C33.6286,9.8132 33.9196,9.5222 33.9196,9.1632 C33.9196,5.6102 31.0286,2.7192 27.4756,2.7192" mask="url(#ic_category_item_indoor-b)"/>
    </g>
    <path fill="#000" d="M21.3721 17.8945C21.0131 17.8945 20.7221 18.1855 20.7221 18.5445 20.7221 18.7375 20.5601 18.9005 20.3661 18.9005L13.5541 18.9005C13.3601 18.9005 13.1971 18.7375 13.1971 18.5445 13.1971 18.1855 12.9061 17.8945 12.5481 17.8945 12.1881 17.8945 11.8971 18.1855 11.8971 18.5445 11.8971 19.4575 12.6411 20.2005 13.5541 20.2005L20.3661 20.2005C21.2791 20.2005 22.0221 19.4575 22.0221 18.5445 22.0221 18.1855 21.7311 17.8945 21.3721 17.8945M16.96 1.2998C19.392 1.2998 21.601 2.2488 23.257 3.7858L25.056 3.7858C23.114 1.4738 20.207-.0002 16.96-.0002 13.713-.0002 10.805 1.4738 8.864 3.7858L10.663 3.7858C12.318 2.2488 14.528 1.2998 16.96 1.2998"/>
  </g>
</svg>
