<svg xmlns="http://www.w3.org/2000/svg" width="24" height="24" viewBox="0 0 24 24">
  <path d="M11.6283895,21.5849929 L3.46134322,12.5124607 C3.16181003,12.1797191 3.02656635,11.7305732 3.092571,11.2877635 C3.91595855,5.76384922 6.88510155,3.00189209 12,3.00189209 C17.114897,3.00189209 20.0840398,5.76384766 20.9074444,11.2877564 C20.9734508,11.730577 20.8382038,12.1797341 20.5386632,12.5124838 L12.3716105,21.5849929 C12.1868586,21.7902277 11.8707119,21.8068324 11.6283895,21.5849929 Z M13.4958801,18.002655 L19,12 C18.0036011,11.2999878 16.9987793,11.2999878 16.0031738,12 L13.4958801,18.002655 Z M10.5041199,17.9970398 L8,12 C6.99737549,11.2999878 6,11.2999878 5.00042725,12 L10.5041199,17.9970398 Z M12.0009766,18.0031433 L14,12 C13.0015869,11.0222168 11.0018311,11.0222168 10.0019531,12 L12.0009766,18.0031433 Z"/>
</svg>
