<svg xmlns="http://www.w3.org/2000/svg" width="24" height="24" viewBox="0 0 24 24">
  <path d="M20.6875,9.5625 C21.1362314,10.0112314 21.1362314,10.7387686 20.6875,11.1875 L19.875,12 L20.6875,12.8125 C21.1362314,13.2612314 21.1362314,13.9887686 20.6875,14.4375 C20.2387686,14.8862314 19.5112314,14.8862314 19.0625,14.4375 L18.25,13.625 L17.4375,14.4375 C16.9887686,14.8862314 16.2612314,14.8862314 15.8125,14.4375 C15.3637686,13.9887686 15.3637686,13.2612314 15.8125,12.8125 L16.625,12 L15.8125,11.1875 C15.3637686,10.7387686 15.3637686,10.0112314 15.8125,9.5625 C16.2612314,9.11376864 16.9887686,9.11376864 17.4375,9.5625 L18.25,10.375 L19.0625,9.5625 C19.5112314,9.11376864 20.2387686,9.11376864 20.6875,9.5625 Z M7.56908899,7.69204748 L10.9097157,3.99171694 C11.1930671,3.67785543 11.5874261,3.5 12,3.5 C12.8284271,3.5 13.5,4.20287961 13.5,5.06992556 L13.5,18.9300715 C13.5,19.3597239 13.3317525,19.7706022 13.0344828,20.0669142 C12.4345873,20.6648769 11.4851222,20.6406397 10.9137931,20.0127788 L7.57142857,16.3396943 L4,16.3396943 C3.17157288,16.3396943 2.5,15.6368147 2.5,14.7697688 L2.5,9.26197304 C2.5,8.39492709 3.17157288,7.69204748 4,7.69204748 L7.56908899,7.69204748 Z M11.5,6.38572666 L8.87482884,9.29356462 C8.59147736,9.60742613 8.19711839,9.78528156 7.7845445,9.78528156 L4.5,9.78528156 L4.5,14.2464603 L7.78571429,14.2464603 C8.19622969,14.2464603 8.58880711,14.4225509 8.87192118,14.7336785 L11.5,17.6218002 L11.5,6.38572666 Z"/>
</svg>
