<svg xmlns="http://www.w3.org/2000/svg" width="24" height="24" viewBox="0 0 24 24">
  <path d="M17.8101825,6.25203979 C18.2045865,5.89468657 18.8140062,5.9247222 19.1713594,6.31912624 C19.1909013,6.34069424 19.209456,6.36313645 19.2269666,6.38638388 C20.5323528,8.11947983 21.1850546,9.98840819 21.1850546,11.9931821 C21.1850546,13.9988066 20.532224,15.8717623 19.2265628,17.6120494 L19.2265826,17.6120642 C18.9070893,18.0379097 18.3028728,18.1241253 17.8770272,17.804632 C17.8539331,17.7873055 17.831629,17.7689501 17.8101825,17.7496215 C17.409305,17.3883321 17.3550747,16.7789514 17.6858537,16.3525501 C18.6974093,15.0486146 19.2031767,13.5954866 19.2031767,11.9931821 C19.2031767,10.3920405 18.6985461,8.94394955 17.6892847,7.64890913 L17.6893091,7.64889014 C17.3577296,7.22342169 17.4104451,6.61422535 17.8101825,6.25203979 Z M15.3289366,8.36803159 C15.7058233,7.98780848 16.3195822,7.98510383 16.6998053,8.36199059 C16.7298864,8.3918078 16.757981,8.4235645 16.7839084,8.4570565 C17.5585916,9.45776604 17.9459341,10.6009183 17.9459341,11.8865146 C17.9459341,13.1731424 17.5584619,14.3190874 16.7835175,15.3243496 L16.7834928,15.3243306 C16.4564593,15.7485603 15.84744,15.8273534 15.4232103,15.5003198 C15.3900273,15.4747395 15.3585368,15.4470358 15.3289366,15.4173828 C14.9399565,15.0277093 14.8853734,14.415592 15.1992695,13.9632423 C15.7091229,13.2284738 15.9640563,12.5362343 15.9640563,11.8865146 C15.9640563,11.2379572 15.7104888,10.549855 15.2033539,9.82220802 L15.203337,9.8222198 C14.8886688,9.37072778 14.9415144,8.75888341 15.3289366,8.36803159 Z M7.56908899,7.69204748 L10.9097157,3.99171694 C11.1930671,3.67785543 11.5874261,3.5 12,3.5 C12.8284271,3.5 13.5,4.20287961 13.5,5.06992556 L13.5,18.9300715 C13.5,19.3597239 13.3317525,19.7706022 13.0344828,20.0669142 C12.4345873,20.6648769 11.4851222,20.6406397 10.9137931,20.0127788 L7.57142857,16.3396943 L4,16.3396943 C3.17157288,16.3396943 2.5,15.6368147 2.5,14.7697688 L2.5,9.26197304 C2.5,8.39492709 3.17157288,7.69204748 4,7.69204748 L7.56908899,7.69204748 Z M11.5,6.38572666 L8.87482884,9.29356462 C8.59147736,9.60742613 8.19711839,9.78528156 7.7845445,9.78528156 L4.5,9.78528156 L4.5,14.2464603 L7.78571429,14.2464603 C8.19622969,14.2464603 8.58880711,14.4225509 8.87192118,14.7336785 L11.5,17.6218002 L11.5,6.38572666 Z"/>
</svg>
