<svg xmlns="http://www.w3.org/2000/svg" width="24" height="24" viewBox="0 0 24 24">
  <path d="M11.9999258,17.8288191 L8.29330965,19.8627934 C7.73487083,20.169232 7.04416609,19.9451313 6.75057743,19.3622505 C6.63366889,19.1301443 6.59332665,18.8642851 6.63579616,18.6058311 L7.34369686,14.2978045 L4.34498138,11.2468431 C3.89319489,10.7871852 3.88395052,10.0322836 4.32433351,9.56072316 C4.49969633,9.3729453 4.72947433,9.25074326 4.9780952,9.21303532 L9.12221807,8.58450271 L10.9755262,4.66493065 C11.2547456,4.07440789 11.939737,3.83195374 12.5054973,4.12339414 C12.730786,4.23944724 12.9131389,4.42978139 13.0243255,4.66493065 L14.8776336,8.58450271 L19.0217565,9.21303532 C19.64611,9.30773005 20.0787024,9.91278676 19.9879785,10.5644673 C19.9518518,10.8239699 19.834774,11.0638049 19.6548703,11.2468431 L16.6561548,14.2978045 L17.3640555,18.6058311 C17.4707078,19.2548784 17.0530732,19.8712781 16.4312424,19.9825985 C16.1836261,20.0269268 15.9289153,19.9848188 15.706542,19.8627934 L11.9999258,17.8288191 Z"/>
</svg>
