<svg xmlns="http://www.w3.org/2000/svg" width="24" height="24" viewBox="0 0 24 24">
  <path d="M12,2 L12,1 C12,0.44771525 12.4477153,1.01453063e-16 13,0 C13.5522847,-1.01453063e-16 14,0.44771525 14,1 L14,2.17070571 C15.1651924,2.58254212 16,3.69378117 16,5 L16,15 C16,16.6568542 14.6568542,18 13,18 L3,18 C1.34314575,18 2.02906125e-16,16.6568542 0,15 L0,5 C-1.5996567e-16,3.69378117 0.834807627,2.58254212 2,2.17070571 L2,1 C2,0.44771525 2.44771525,1.01453063e-16 3,0 C3.55228475,-1.01453063e-16 4,0.44771525 4,1 L4,2 L12,2 Z M2,7 L2,15 C2,15.5522847 2.44771525,16 3,16 L13,16 C13.5522847,16 14,15.5522847 14,15 L14,7 L2,7 Z M6.67285357,11.8838835 L10.026407,8.53033009 C10.3193002,8.23743687 10.7941739,8.23743687 11.0870671,8.53033009 C11.3799603,8.8232233 11.3799603,9.29809704 11.0870671,9.59099026 L7.37860554,13.3004261 L7.37811808,13.3009132 C6.98732477,13.6911683 6.35415994,13.6907319 5.96390486,13.2999386 L5.96439231,13.2994518 L4.5299645,11.8630457 C4.23721413,11.5698915 4.23737777,11.0949725 4.53033009,10.8020202 C4.8232233,10.5091269 5.29809704,10.5091269 5.59099026,10.8020202 L6.67285357,11.8838835 Z" transform="translate(4 3)"/>
</svg>
