<svg xmlns="http://www.w3.org/2000/svg" width="24" height="24" viewBox="0 0 24 24">
  <path d="M18,17 L18,20 C18.553,20 19,20.448 19,21 C19,21.553 18.553,22 18,22 L6,22 C5.448,22 5,21.553 5,21 C5,20.448 5.448,20 6,20 L6,17 C6,16.773 6.077,16.553 6.219,16.375 L9.719,12 L6.219,7.625 C6.077,7.448 6,7.227 6,7 L6,4 C5.448,4 5,3.553 5,3 C5,2.448 5.448,2 6,2 L18,2 C18.553,2 19,2.448 19,3 C19,3.553 18.553,4 18,4 L18,7 C18,7.227 17.923,7.448 17.781,7.625 L14.28,12 L17.781,16.375 C17.923,16.553 18,16.773 18,17 Z M11.9904224,12.1391896 C11.9662752,12.312397 11.8964677,12.4802699 11.781,12.625 L8,17.351 L8,20 L16,20 L16,17.351 L12.219,12.625 C12.1035323,12.4802699 12.0337248,12.312397 12.0095776,12.1391896 C12.0337248,11.8847985 12.1035323,11.5216703 12.219,11.3769221 L16,6.65033129 L16,4 L8,4 L8,6.65033129 L11.781,11.3769221 C11.8964677,11.5216703 11.9662752,11.8847985 11.9904224,12.1391896 Z"/>
</svg>
