<svg xmlns="http://www.w3.org/2000/svg" width="24" height="24" viewBox="0 0 24 24">
  <path d="M15.5397114,11.8270316 L15.8201052,11.5466378 C16.1325247,11.2342184 16.6390567,11.2342184 16.9514761,11.5466378 L17.8788897,12.4740514 L21.1764706,9.17647059 L20.4377222,8.43772223 C19.0500052,8.75433275 17.7167291,8.41191623 16.6524064,7.34759358 C15.5880838,6.28327094 15.2456672,4.94999485 15.5622778,3.56227777 L14.8235294,2.82352941 L11.5259486,6.12111026 L11.8934118,6.48857353 C12.2058313,6.80099296 12.2058313,7.30752495 11.8934118,7.61994438 L11.613018,7.90033824 C11.3005985,8.21275767 10.7940666,8.21275767 10.4816471,7.90033824 L10.1141839,7.53287497 L2.82352941,14.8235294 L3.49286314,15.4928631 C4.85209049,15.1412435 6.22204813,15.526861 7.34759358,16.6524064 C8.47313904,17.7779519 8.85875655,19.1479095 8.50713686,20.5071369 L9.17647059,21.1764706 L16.467125,13.8858161 L15.5397114,12.9584025 C15.2272919,12.6459831 15.2272919,12.1394511 15.5397114,11.8270316 Z M0.565685425,14.257844 L14.257844,0.565685425 C14.5702634,0.253265992 15.0767954,0.253265992 15.3892148,0.565685425 L17.8823529,3.05882353 C17.2449579,4.21821994 17.305564,5.17722172 18.0641711,5.93582888 C18.8227783,6.69443603 19.7817801,6.75504209 20.9411765,6.11764706 L23.4343146,8.61078516 C23.746734,8.9232046 23.746734,9.42973658 23.4343146,9.74215601 L9.74215601,23.4343146 C9.42973658,23.746734 8.9232046,23.746734 8.61078516,23.4343146 L6.11764706,20.9411765 C6.86569045,19.8924284 6.80508439,18.9334266 5.93582888,18.0641711 C5.06657336,17.1949156 4.10757158,17.1343095 3.05882353,17.8823529 L0.565685425,15.3892148 C0.253265992,15.0767954 0.253265992,14.5702634 0.565685425,14.257844 Z M12.4741955,8.90293713 L12.8960107,8.48112192 C13.1693777,8.20775492 13.6125932,8.20775492 13.8859602,8.48112192 L14.9589277,9.5540894 C15.2322947,9.8274564 15.2322947,10.2706719 14.9589277,10.5440389 L14.5371125,10.9658541 C14.2637455,11.2392211 13.82053,11.2392211 13.547163,10.9658541 L12.4741955,9.89288663 C12.2008285,9.61951962 12.2008285,9.17630414 12.4741955,8.90293713 Z"/>
</svg>
