<svg xmlns="http://www.w3.org/2000/svg" width="24" height="24" viewBox="0 0 24 24">
  <path d="M11,2 C6.02943725,2 2,6.02943725 2,11 C2,15.9705627 6.02943725,20 11,20 C15.9705627,20 20,15.9705627 20,11 C20,6.02943725 15.9705627,2 11,2 Z M11,0 C17.0751322,-1.22124533e-15 22,4.92486775 22,11 C22,17.0751322 17.0751322,22 11,22 C4.92486775,22 9.76996262e-16,17.0751322 0,11 C-7.32747196e-16,4.92486775 4.92486775,9.76996262e-16 11,0 Z M14.3461351,12.9156397 L11.8000002,10.674681 L11.8000002,4.81237793 C11.8000002,4.39816437 11.4642138,4.06237793 11.0500002,4.06237793 C10.6357866,4.06237793 10.3000002,4.39816437 10.3000002,4.81237793 L10.3000002,10.9966514 C10.3000002,11.202227 10.3843839,11.398791 10.5334219,11.5403856 L13.3129785,14.0031081 C13.6132746,14.2884064 14.0879927,14.2762483 14.373291,13.9759521 C14.6585893,13.675656 14.6464312,13.200938 14.3461351,12.9156397 Z" transform="translate(1 1)"/>
</svg>
