<svg xmlns="http://www.w3.org/2000/svg" width="160" height="16" viewBox="0 0 160 16">
  <g fill="none" fill-rule="evenodd">
    <path fill="#F2114C" fill-rule="nonzero" d="M38.8188428-.0000914285714C37.5418831-.0000914285714 36.5068618 1.03762286 36.5068618 2.31739429L36.5068618 15.8175086 41.1305957 15.8175086 41.1305957 2.31739429C41.1305957 1.03762286 40.0955743-.0000914285714 38.8188428-.0000914285714M31.8637454.00146285714L25.1628998.00146285714C23.8861682.00146285714 22.8511468 1.03894857 22.8511468 2.31894857 22.8511468 3.59872 23.8861682 4.63620571 25.1628998 4.63620571L29.7905102 4.63620571C30.3026622 4.63620571 30.7181302 5.05243429 30.7181302 5.56580571L30.7181302 15.8174629 35.3416361 15.8174629 35.3416361 3.48763429C35.3416361 1.56237714 33.7846575.00146285714 31.8637454.00146285714M51.0499952 11.38896C49.1329596 11.38896 47.5787173 9.83124571 47.5787173 7.90941714 47.5787173 5.98781714 49.1329596 4.43010286 51.0499952 4.43010286 52.9670309 4.43010286 54.5215012 5.98781714 54.5215012 7.90941714 54.5215012 9.83124571 52.9670309 11.38896 51.0499952 11.38896M62.3494917-.0000685714286C61.0727601-.0000685714286 60.0377387 1.03764571 60.0377387 2.31741714L60.0377387 5.70370286 58.6278385 5.70370286C57.6753634 2.40976 54.6434964.00153142857 51.0499952.00153142857 46.6930546.00153142857 43.1608931 3.54210286 43.1608931 7.90941714 43.1608931 12.27696 46.6930546 15.8175314 51.0499952 15.8175314 54.5616342 15.8175314 57.5369501 13.5174171 58.559658 10.3384457L60.0377387 10.3384457 60.0377387 15.8175314 64.6612447 15.8175314 64.6612447 2.31741714C64.6612447 1.03764571 63.6262233-.0000685714286 62.3494917-.0000685714286M70.4092504 5.56576C70.4092504 5.05238857 70.8244903 4.63638857 71.3366423 4.63638857L72.8097064 4.63638857 72.8097064 11.1826743 71.3366423 11.1826743C70.8244903 11.1826743 70.4092504 10.7666743 70.4092504 10.2530743L70.4092504 5.56576zM65.7734309 3.48758857L65.7734309 4.63638857 65.7734309 11.1490743 65.7734309 11.1826743 65.7734309 12.3312457C65.7734309 14.2565029 67.3306375 15.8176457 69.2515496 15.8176457L78.1916352 15.8176457 78.1916352 11.1826743 76.950704 11.1826743 76.950704 4.63638857 78.1916352 4.63638857 78.1916352.00141714286 69.2515496.00141714286C67.3306375.00141714286 65.7734309 1.56233143 65.7734309 3.48758857zM93.5957815 11.28896C92.3046841 11.28896 91.2580333 12.3381029 91.2580333 13.6322743 91.2580333 14.9264457 92.3046841 15.9755886 93.5957815 15.9755886 94.8868789 15.9755886 95.9337577 14.9264457 95.9337577 13.6322743 95.9337577 12.3381029 94.8868789 11.28896 93.5957815 11.28896M15.7082451 8.95012571C15.7529387 8.60932571 15.7784779 8.26258286 15.7784779 7.90944 15.7784779 7.56201143 15.7536228 7.22052571 15.7102974 6.88475429L17.3090052 6.88475429 17.3090052 8.95012571 15.7082451 8.95012571zM7.88914774 11.3889829C5.97211211 11.3889829 4.41786983 9.83104 4.41786983 7.90944 4.41786983 5.98784 5.97211211 4.43012571 7.88914774 4.43012571 9.80618337 4.43012571 11.3604257 5.98784 11.3604257 7.90944 11.3604257 9.83104 9.80618337 11.3889829 7.88914774 11.3889829zM19.6207582-.0000457142857C18.3437986-.0000457142857 17.3090052 1.03766857 17.3090052 2.31721143L17.3090052 2.73686857 17.3090052 2.87149714 13.9699838 2.87149714C12.523143 1.11835429 10.3363496.00155428571 7.88914774.00155428571 3.53220713.00155428571.0000456057007 3.54212571.0000456057007 7.90944.0000456057007 12.2769829 3.53220713 15.8175543 7.88914774 15.8175543 10.3358936 15.8175543 12.5224589 14.7007543 13.9695278 12.9480686L17.3090052 12.9480686 17.3090052 13.0820114 17.3090052 15.8175543 21.9325112 15.8175543 21.9325112 2.31721143C21.9325112 1.03766857 20.8974898-.0000457142857 19.6207582-.0000457142857zM84.7634622.00928C81.777429.00928 79.3569064 2.43556571 79.3569064 5.42870857L79.3569064 15.8175086 83.9804124 15.8175086 83.9804124 5.42870857C83.9804124 4.99510857 84.3311202 4.64379429 84.7634622 4.64379429 85.1958043 4.64379429 85.5465121 4.99510857 85.5465121 5.42870857L85.5465121 15.8175086 90.1700181 15.8175086 90.1700181 5.42870857C90.1700181 2.43556571 87.7494955.00928 84.7634622.00928"/>
    <path fill="#000" fill-opacity=".48" d="M107.282511,4.64573991 C107.282511,6.58295964 106.026906,8.35874439 103.659193,8.35874439 C101.29148,8.35874439 100,6.58295964 100,4.64573991 C100,2.69058296 101.29148,0.914798206 103.641256,0.914798206 C106.008969,0.914798206 107.282511,2.69058296 107.282511,4.64573991 Z M113.434978,9.38116592 L111.443946,9.38116592 L111.443946,5.52466368 L110.206278,5.52466368 L110.206278,9.21973094 L108.251121,9.21973094 L108.251121,0.286995516 L110.206278,0.286995516 L110.206278,3.83856502 L111.443946,3.83856502 L111.443946,0 L113.434978,0 L113.434978,9.38116592 Z M102.313901,10.1345291 L113.434978,10.1345291 L113.434978,16 L111.336323,16 L111.336323,11.8026906 L102.313901,11.8026906 L102.313901,10.1345291 Z M105.327354,4.64573991 C105.327354,3.46188341 104.627803,2.61883408 103.641256,2.61883408 C102.672646,2.61883408 101.973094,3.46188341 101.973094,4.64573991 C101.973094,5.79372197 102.672646,6.67264574 103.641256,6.67264574 C104.627803,6.67264574 105.327354,5.79372197 105.327354,4.64573991 Z M124.789238,10.1883408 L125.022422,11.838565 C123.35426,12.1434978 120.591928,12.3587444 117.775785,12.3587444 L116.251121,12.3587444 L116.251121,1.38116592 L123.802691,1.38116592 L123.802691,3.04932735 L118.331839,3.04932735 L118.331839,5.95515695 L123.533632,5.95515695 L123.533632,7.62331839 L118.331839,7.62331839 L118.331839,10.6726457 C120.591928,10.6726457 123.013453,10.529148 124.789238,10.1883408 Z M128.44843,15.9820628 L126.331839,15.9820628 L126.331839,0 L128.44843,0 L128.44843,15.9820628 Z M144.071749,15.9820628 L141.991031,15.9820628 L141.991031,0 L144.071749,0 L144.071749,15.9820628 Z M139.210762,12.0358744 L131.659193,12.0358744 L131.659193,1.29147982 L133.73991,1.29147982 L133.73991,5.13004484 L137.09417,5.13004484 L137.09417,1.25560538 L139.210762,1.25560538 L139.210762,12.0358744 Z M137.09417,10.3856502 L137.09417,6.78026906 L133.73991,6.78026906 L133.73991,10.3856502 L137.09417,10.3856502 Z M155.820628,10.1883408 L156.053812,11.838565 C154.38565,12.1434978 151.623318,12.3587444 148.807175,12.3587444 L147.282511,12.3587444 L147.282511,1.38116592 L154.834081,1.38116592 L154.834081,3.04932735 L149.363229,3.04932735 L149.363229,5.95515695 L154.565022,5.95515695 L154.565022,7.62331839 L149.363229,7.62331839 L149.363229,10.6726457 C151.623318,10.6726457 154.044843,10.529148 155.820628,10.1883408 Z M159.479821,15.9820628 L157.363229,15.9820628 L157.363229,0 L159.479821,0 L159.479821,15.9820628 Z"/>
  </g>
</svg>
