<svg xmlns="http://www.w3.org/2000/svg" width="311" height="632" viewBox="0 0 311 632">
  <path d="M27.5,8 L206.5,8 C217.269553,8 226,16.7304474 226,27.5 L226,28.5 C226,39.2695526 217.269553,48 206.5,48 L27.5,48 C16.7304474,48 8,39.2695526 8,28.5 L8,27.5 C8,16.7304474 16.7304474,8 27.5,8 Z M27.5,54 L121.5,54 C132.269553,54 141,62.7304474 141,73.5 L141,74.5 C141,85.2695526 132.269553,94 121.5,94 L27.5,94 C16.7304474,94 8,85.2695526 8,74.5 L8,73.5 C8,62.7304474 16.7304474,54 27.5,54 Z M27.5,100 L186.5,100 C197.269553,100 206,108.730447 206,119.5 L206,120.5 C206,131.269553 197.269553,140 186.5,140 L27.5,140 C16.7304474,140 8,131.269553 8,120.5 L8,119.5 C8,108.730447 16.7304474,100 27.5,100 Z M27.5,146 L157.5,146 C168.269553,146 177,154.730447 177,165.5 L177,166.5 C177,177.269553 168.269553,186 157.5,186 L27.5,186 C16.7304474,186 8,177.269553 8,166.5 L8,165.5 C8,154.730447 16.7304474,146 27.5,146 Z M16,266 L238,266 C242.418278,266 246,269.581722 246,274 L246,281 C246,285.418278 242.418278,289 238,289 L16,289 C11.581722,289 8,285.418278 8,281 L8,274 C8,269.581722 11.581722,266 16,266 Z M16,483 L238,483 C242.418278,483 246,486.581722 246,491 L246,498 C246,502.418278 242.418278,506 238,506 L16,506 C11.581722,506 8,502.418278 8,498 L8,491 C8,486.581722 11.581722,483 16,483 Z M15,305 L296,305 C299.865993,305 303,308.134007 303,312 C303,315.865993 299.865993,319 296,319 L15,319 C11.1340068,319 8,315.865993 8,312 C8,308.134007 11.1340068,305 15,305 Z M15,522 L284,522 C287.865993,522 291,525.134007 291,529 C291,532.865993 287.865993,536 284,536 L15,536 C11.1340068,536 8,532.865993 8,529 C8,525.134007 11.1340068,522 15,522 Z M15,327 L254,327 C257.865993,327 261,330.134007 261,334 C261,337.865993 257.865993,341 254,341 L15,341 C11.1340068,341 8,337.865993 8,334 C8,330.134007 11.1340068,327 15,327 Z M15,544 L254,544 C257.865993,544 261,547.134007 261,551 C261,554.865993 257.865993,558 254,558 L15,558 C11.1340068,558 8,554.865993 8,551 C8,547.134007 11.1340068,544 15,544 Z M15,393 L254,393 C257.865993,393 261,396.134007 261,400 C261,403.865993 257.865993,407 254,407 L15,407 C11.1340068,407 8,403.865993 8,400 C8,396.134007 11.1340068,393 15,393 Z M15,610 L254,610 C257.865993,610 261,613.134007 261,617 C261,620.865993 257.865993,624 254,624 L15,624 C11.1340068,624 8,620.865993 8,617 C8,613.134007 11.1340068,610 15,610 Z M15,371 L204,371 C207.865993,371 211,374.134007 211,378 C211,381.865993 207.865993,385 204,385 L15,385 C11.1340068,385 8,381.865993 8,378 C8,374.134007 11.1340068,371 15,371 Z M15,588 L204,588 C207.865993,588 211,591.134007 211,595 C211,598.865993 207.865993,602 204,602 L15,602 C11.1340068,602 8,598.865993 8,595 C8,591.134007 11.1340068,588 15,588 Z M15,437 L204,437 C207.865993,437 211,440.134007 211,444 C211,447.865993 207.865993,451 204,451 L15,451 C11.1340068,451 8,447.865993 8,444 C8,440.134007 11.1340068,437 15,437 Z M15,349 L284,349 C287.865993,349 291,352.134007 291,356 C291,359.865993 287.865993,363 284,363 L15,363 C11.1340068,363 8,359.865993 8,356 C8,352.134007 11.1340068,349 15,349 Z M15,566 L284,566 C287.865993,566 291,569.134007 291,573 C291,576.865993 287.865993,580 284,580 L15,580 C11.1340068,580 8,576.865993 8,573 C8,569.134007 11.1340068,566 15,566 Z M15,415 L284,415 C287.865993,415 291,418.134007 291,422 C291,425.865993 287.865993,429 284,429 L15,429 C11.1340068,429 8,425.865993 8,422 C8,418.134007 11.1340068,415 15,415 Z"/>
</svg>
