<svg xmlns="http://www.w3.org/2000/svg" width="156" height="40" viewBox="0 0 156 40">
  <path d="M698.4,1480.2 L698.4,1459.52 C698.4,1454.76 702.56,1452.08 707.32,1452.08 C712.08,1452.08 715.88,1454.76 715.88,1459.52 L715.88,1460.36 L718.32,1460.36 L718.32,1454.72 C718.32,1452.8 719.88,1451.28 721.76,1451.28 C723.72,1451.28 725.24,1452.8 725.24,1454.72 L725.24,1485.4 C725.24,1487.36 723.72,1488.84 721.76,1488.84 C719.88,1488.84 718.32,1487.36 718.32,1485.4 L718.32,1478.76 L715.88,1478.76 L715.88,1480.2 C715.88,1484.96 712.08,1487.64 707.32,1487.64 C702.56,1487.64 698.4,1484.96 698.4,1480.2 Z M726.92,1485.56 L726.92,1454.56 C726.92,1452.6 728.48,1451.08 730.4,1451.08 C732.36,1451.08 733.92,1452.6 733.92,1454.56 L733.92,1485.56 C733.92,1487.56 732.36,1489.04 730.4,1489.04 C728.48,1489.04 726.92,1487.56 726.92,1485.56 Z M705.28,1459.64 L705.28,1480.08 C705.28,1481.24 706.16,1482.12 707.32,1482.12 C708.48,1482.12 709.36,1481.24 709.36,1480.08 L709.36,1459.64 C709.36,1458.48 708.48,1457.6 707.32,1457.6 C706.16,1457.6 705.28,1458.48 705.28,1459.64 Z M715.88,1465.96 L715.88,1473.16 L718.32,1473.16 L718.32,1465.96 L715.88,1465.96 Z M738.4,1464.12 L738.4,1460.2 C738.4,1454.48 743.16,1451.48 749.08,1451.48 C755,1451.48 759.8,1454.48 759.8,1460.2 L759.8,1464.12 C759.8,1469.84 755,1472.8 749.08,1472.8 C743.16,1472.8 738.4,1469.84 738.4,1464.12 Z M772,1478.92 L772,1485.44 C772,1487.44 770.4,1489.04 768.4,1489.04 C766.4,1489.04 764.8,1487.44 764.8,1485.44 L764.8,1481.12 L742.52,1481.12 C740.96,1481.12 739.72,1479.88 739.72,1478.32 C739.72,1476.76 740.96,1475.52 742.52,1475.52 L768.6,1475.52 C770.36,1475.52 772,1476.84 772,1478.92 Z M764.8,1470.92 L764.8,1454.68 C764.8,1452.64 766.4,1451.08 768.4,1451.08 C770.4,1451.08 772,1452.64 772,1454.68 L772,1455.84 L773.84,1455.84 C775.36,1455.84 776.56,1457.04 776.56,1458.56 C776.56,1460.04 775.36,1461.24 773.84,1461.24 L772,1461.24 L772,1463.96 L773.84,1463.96 C775.36,1463.96 776.56,1465.16 776.56,1466.68 C776.56,1468.16 775.36,1469.36 773.84,1469.36 L772,1469.36 L772,1470.92 C772,1473 770.4,1474.52 768.4,1474.52 C766.4,1474.52 764.8,1473 764.8,1470.92 Z M745.52,1460.2 L745.52,1464.12 C745.52,1466.32 747.16,1467.28 749.12,1467.28 C751.08,1467.28 752.68,1466.32 752.68,1464.12 L752.68,1460.2 C752.68,1458 751.08,1457 749.12,1457 C747.16,1457 745.52,1458 745.52,1460.2 Z M777.8,1470.04 C777.8,1468.6 778.48,1467.56 779.64,1467 C784.48,1464.68 787,1460.32 787,1456.28 L787,1454.88 C787,1452.88 788.6,1451.48 790.6,1451.48 C792.6,1451.48 794.2,1452.88 794.2,1454.88 L794.2,1456.28 C794.2,1460.32 796.72,1464.48 801.56,1466.8 C802.72,1467.36 803.4,1468.4 803.4,1469.84 C803.4,1471.64 802,1473.08 800.12,1473.08 C799.56,1473.08 798.92,1472.92 798.48,1472.72 C795.48,1471.36 792.52,1469.12 790.6,1465.52 C788.72,1469.2 785.72,1471.56 782.72,1472.92 C782.28,1473.12 781.64,1473.28 781.08,1473.28 C779.2,1473.28 777.8,1471.84 777.8,1470.04 Z M780.08,1485.24 L780.08,1478.32 C780.08,1476.32 781.68,1475.12 783.68,1475.12 C785.68,1475.12 787.28,1476.32 787.28,1478.32 L787.28,1483.04 L811.12,1483.04 C812.68,1483.04 813.92,1484.28 813.92,1485.84 C813.92,1487.4 812.68,1488.64 811.12,1488.64 L783.48,1488.64 C781.72,1488.64 780.08,1487.32 780.08,1485.24 Z M805.92,1475.72 L805.92,1454.68 C805.92,1452.64 807.52,1451.08 809.52,1451.08 C811.52,1451.08 813.12,1452.64 813.12,1454.68 L813.12,1475.72 C813.12,1477.8 811.52,1479.32 809.52,1479.32 C807.52,1479.32 805.92,1477.8 805.92,1475.72 Z M827.32,1488.64 C823.12,1488.64 819.68,1485.76 819.68,1481.56 C819.68,1477.32 823.12,1474.44 827.32,1474.44 L846.24,1474.44 C850.48,1474.44 853.92,1477.32 853.92,1481.56 C853.92,1485.76 850.48,1488.64 846.24,1488.64 L827.32,1488.64 Z M818,1470 C818,1468.4 818.84,1467.48 819.92,1467.04 C823,1465.8 825.48,1463.32 826.16,1459.88 L821,1459.88 C819.44,1459.88 818.2,1458.76 818.2,1457.12 C818.2,1455.4 819.44,1454.28 821,1454.28 L826.36,1454.28 L826.36,1453.48 C826.36,1451.44 827.96,1450.28 829.96,1450.28 C831.96,1450.28 833.56,1451.44 833.56,1453.48 L833.56,1454.28 L838.92,1454.28 C840.64,1454.28 841.8,1455.4 841.8,1457.12 C841.8,1458.76 840.64,1459.88 838.92,1459.88 L833.76,1459.88 C834.44,1463.2 836.92,1465.6 840,1466.84 C841.08,1467.28 841.92,1468.2 841.92,1469.8 C841.92,1471.6 840.6,1472.92 838.72,1472.92 C838.2,1472.92 837.64,1472.8 837.16,1472.6 C834.4,1471.48 831.72,1469.64 830,1466.64 C828.24,1469.76 825.56,1471.64 822.76,1472.8 C822.28,1473 821.72,1473.12 821.2,1473.12 C819.32,1473.12 818,1471.8 818,1470 Z M846.32,1470.2 L846.32,1466.16 L842,1466.16 C840.44,1466.16 839.2,1464.92 839.2,1463.36 C839.2,1461.8 840.44,1460.56 842,1460.56 L846.32,1460.56 L846.32,1454.68 C846.32,1452.64 847.92,1451.08 849.92,1451.08 C851.92,1451.08 853.52,1452.64 853.52,1454.68 L853.52,1470.2 C853.52,1472.28 851.92,1473.8 849.92,1473.8 C847.92,1473.8 846.32,1472.28 846.32,1470.2 Z M826.8,1481.56 C826.8,1482.64 827.6,1483.2 828.8,1483.2 L844.76,1483.2 C845.96,1483.2 846.8,1482.64 846.8,1481.56 C846.8,1480.48 845.96,1479.88 844.76,1479.88 L828.8,1479.88 C827.6,1479.88 826.8,1480.48 826.8,1481.56 Z" transform="translate(-698 -1450)"/>
</svg>
