<svg xmlns="http://www.w3.org/2000/svg" width="157" height="39" viewBox="0 0 157 39">
  <path d="M928.32,1482.28 L904.28,1482.28 L904.28,1484 L929,1484 C930.32,1484 931.32,1485 931.32,1486.32 C931.32,1487.64 930.32,1488.64 929,1488.64 L899.4,1488.64 C898.08,1488.64 897.08,1487.64 897.08,1486.32 L897.08,1480.08 C897.08,1478.88 898.08,1477.88 899.28,1477.88 L923.32,1477.88 L923.32,1476.2 L899.16,1476.2 C897.88,1476.2 896.88,1475.2 896.88,1473.92 C896.88,1472.64 897.88,1471.64 899.16,1471.64 L928.24,1471.64 C929.52,1471.64 930.52,1472.64 930.52,1473.92 L930.52,1480.08 C930.52,1481.32 929.52,1482.28 928.32,1482.28 Z M923.32,1467.24 L923.32,1467.16 L918.28,1467.16 C916.84,1467.16 915.88,1466 915.88,1464.56 C915.88,1463.08 916.84,1461.88 918.28,1461.88 L923.32,1461.88 L923.32,1460.08 L916.56,1460.08 C914.68,1465.52 908.68,1470 897.36,1470 C895.84,1470 894.6,1468.76 894.6,1467.16 C894.6,1465.56 895.8,1464.32 897.36,1464.32 C904.28,1464.32 909.96,1461.4 910.24,1457.6 L897.96,1457.6 C896.44,1457.6 895.2,1456.36 895.2,1454.84 C895.2,1453.32 896.44,1452.08 897.96,1452.08 L914.44,1452.08 C915.96,1452.08 917.2,1453.32 917.2,1454.84 L923.32,1454.84 L923.32,1454.48 C923.32,1452.44 924.92,1451.08 926.92,1451.08 C928.92,1451.08 930.52,1452.44 930.52,1454.48 L930.52,1467.24 C930.52,1469.32 928.92,1470.64 926.92,1470.64 C924.92,1470.64 923.32,1469.32 923.32,1467.24 Z M953.76,1483.76 C953.76,1485.68 952.44,1487.24 950.44,1487.24 C949.4,1487.24 948.64,1486.96 947.88,1486.04 C946.08,1483.88 944.92,1480.84 944.16,1477.44 C943.4,1480.92 942.24,1484.04 940.44,1486.24 C939.68,1487.16 938.76,1487.44 937.72,1487.44 C935.72,1487.44 934.4,1485.88 934.4,1483.96 C934.4,1483.04 934.72,1482.28 935.24,1481.6 C939.36,1476.2 940.6,1467.8 940.6,1461.08 L940.6,1458.6 L937.72,1458.6 C936.12,1458.6 934.8,1457.28 934.8,1455.68 C934.8,1454 936.12,1452.68 937.72,1452.68 L950.36,1452.68 C952.12,1452.68 953.36,1454 953.36,1455.68 C953.36,1457.28 952.12,1458.6 950.36,1458.6 L947.56,1458.6 L947.56,1461.08 C947.56,1467.8 948.8,1476 952.92,1481.4 C953.44,1482.08 953.76,1482.84 953.76,1483.76 Z M955.32,1485.4 L955.32,1471.68 L953,1471.68 C951.24,1471.68 950.04,1470.28 950.04,1468.52 C950.04,1466.76 951.24,1465.36 953,1465.36 L955.32,1465.36 L955.32,1454.72 C955.32,1452.8 956.88,1451.28 958.76,1451.28 C960.72,1451.28 962.24,1452.8 962.24,1454.72 L962.24,1485.4 C962.24,1487.36 960.72,1488.84 958.76,1488.84 C956.88,1488.84 955.32,1487.36 955.32,1485.4 Z M963.92,1485.56 L963.92,1454.56 C963.92,1452.6 965.48,1451.08 967.4,1451.08 C969.36,1451.08 970.92,1452.6 970.92,1454.56 L970.92,1485.56 C970.92,1487.56 969.36,1489.04 967.4,1489.04 C965.48,1489.04 963.92,1487.56 963.92,1485.56 Z M1007.92,1482.4 L984.28,1482.4 L984.28,1484 L1008.6,1484 C1009.92,1484 1010.92,1485 1010.92,1486.32 C1010.92,1487.64 1009.92,1488.64 1008.6,1488.64 L979.4,1488.64 C978.08,1488.64 977.08,1487.64 977.08,1486.32 L977.08,1480.2 C977.08,1479 978.08,1478 979.28,1478 L1002.92,1478 L1002.92,1476.44 L979.16,1476.44 C977.88,1476.44 976.88,1475.44 976.88,1474.16 C976.88,1472.88 977.88,1471.88 979.16,1471.88 L1007.84,1471.88 C1009.12,1471.88 1010.12,1472.88 1010.12,1474.16 L1010.12,1480.2 C1010.12,1481.44 1009.12,1482.4 1007.92,1482.4 Z M974.8,1466.96 C974.8,1465.56 975.56,1464.52 976.64,1464.04 C982.36,1461.48 984,1458.12 984,1455.4 L984,1454.68 C984,1452.68 985.6,1451.28 987.6,1451.28 C989.6,1451.28 991.2,1452.68 991.2,1454.68 L991.2,1455.4 C991.2,1457.92 993.08,1461.44 998.56,1463.68 C999.64,1464.12 1000.4,1465.16 1000.4,1466.56 C1000.4,1468.32 999.12,1469.64 997.32,1469.64 C996.72,1469.64 996.04,1469.44 995.52,1469.24 C992.76,1468.2 989.64,1466.12 987.64,1462.76 C985.72,1466.2 982.64,1468.32 979.72,1469.64 C979.2,1469.88 978.48,1470.04 977.88,1470.04 C976.08,1470.04 974.8,1468.72 974.8,1466.96 Z M1002.92,1467.28 L1002.92,1454.68 C1002.92,1452.64 1004.52,1451.08 1006.52,1451.08 C1008.52,1451.08 1010.12,1452.64 1010.12,1454.68 L1010.12,1467.28 C1010.12,1469.36 1008.52,1470.88 1006.52,1470.88 C1004.52,1470.88 1002.92,1469.36 1002.92,1467.28 Z M1044.08,1485.56 L1044.08,1471.68 L1042.28,1471.68 L1042.28,1485.4 C1042.28,1487.36 1040.84,1488.84 1038.88,1488.84 C1037,1488.84 1035.52,1487.36 1035.52,1485.4 L1035.52,1454.72 C1035.52,1452.8 1037,1451.28 1038.88,1451.28 C1040.84,1451.28 1042.28,1452.8 1042.28,1454.72 L1042.28,1465.76 L1044.08,1465.76 L1044.08,1454.56 C1044.08,1452.6 1045.56,1451.08 1047.48,1451.08 C1049.44,1451.08 1050.92,1452.6 1050.92,1454.56 L1050.92,1485.56 C1050.92,1487.56 1049.44,1489.04 1047.48,1489.04 C1045.56,1489.04 1044.08,1487.56 1044.08,1485.56 Z M1034.92,1484.08 C1034.92,1485.72 1034,1487.04 1032.36,1487.04 L1017.16,1487.04 C1015.52,1487.04 1014.6,1485.72 1014.6,1484.08 C1014.6,1482.44 1015.52,1481.12 1017.16,1481.12 L1017.64,1481.12 L1017.24,1462.6 C1017.2,1460.56 1018.4,1459.4 1020.44,1459.4 C1022.48,1459.4 1023.6,1460.56 1023.64,1462.6 L1023.84,1481.12 L1025.68,1481.12 L1025.88,1462.6 C1025.92,1460.56 1027.04,1459.4 1029.08,1459.4 C1031.12,1459.4 1032.32,1460.56 1032.28,1462.6 L1031.88,1481.12 L1032.36,1481.12 C1034,1481.12 1034.92,1482.44 1034.92,1484.08 Z M1034.52,1455.64 C1034.52,1457.28 1033.6,1458.6 1031.96,1458.6 L1017.56,1458.6 C1015.92,1458.6 1015,1457.28 1015,1455.64 C1015,1454 1015.92,1452.68 1017.56,1452.68 L1031.96,1452.68 C1033.6,1452.68 1034.52,1454 1034.52,1455.64 Z" transform="translate(-894 -1451)"/>
</svg>
