<svg xmlns="http://www.w3.org/2000/svg" width="158" height="39" viewBox="0 0 158 39">
  <path d="M508.6,1473.24 C508.6,1471.6 510,1470.24 511.64,1470.24 L542.32,1470.24 C544.04,1470.24 545.4,1471.6 545.4,1473.24 C545.4,1474.84 544.04,1476.24 542.32,1476.24 L530.56,1476.24 L530.56,1485.84 C530.56,1487.88 529,1489.44 526.96,1489.44 C524.92,1489.44 523.36,1487.88 523.36,1485.84 L523.36,1476.24 L511.64,1476.24 C510,1476.24 508.6,1474.84 508.6,1473.24 Z M536.6,1458.08 L512.8,1458.08 C511.12,1458.08 509.8,1456.8 509.8,1455.08 C509.8,1453.4 511.12,1452.08 512.8,1452.08 L541.04,1452.08 C542.56,1452.08 543.8,1453.32 543.8,1454.84 L543.8,1456.12 C543.8,1458.6 543.56,1462.96 542.6,1466.48 C542.12,1468.24 540.68,1469.04 539.16,1469.04 C537,1469.04 535.56,1467.48 535.56,1465.64 C535.56,1465.28 535.64,1464.8 535.76,1464.36 C536.36,1462.2 536.6,1459.28 536.6,1458.08 Z M564.2,1487.04 L552.16,1487.04 C550.64,1487.04 549.4,1485.8 549.4,1484.28 L549.4,1455.44 C549.4,1453.92 550.64,1452.68 552.16,1452.68 L564.2,1452.68 C565.72,1452.68 566.96,1453.92 566.96,1455.44 L566.96,1484.28 C566.96,1485.8 565.72,1487.04 564.2,1487.04 Z M577.92,1485.56 L577.92,1471.68 L576.08,1471.68 L576.08,1485.4 C576.08,1487.36 574.56,1488.84 572.6,1488.84 C570.72,1488.84 569.16,1487.36 569.16,1485.4 L569.16,1454.72 C569.16,1452.8 570.72,1451.28 572.6,1451.28 C574.56,1451.28 576.08,1452.8 576.08,1454.72 L576.08,1465.76 L577.92,1465.76 L577.92,1454.56 C577.92,1452.6 579.48,1451.08 581.4,1451.08 C583.36,1451.08 584.92,1452.6 584.92,1454.56 L584.92,1485.56 C584.92,1487.56 583.36,1489.04 581.4,1489.04 C579.48,1489.04 577.92,1487.56 577.92,1485.56 Z M556.28,1458.52 L556.28,1481.2 L560.08,1481.2 L560.08,1458.52 L556.28,1458.52 Z M591.4,1475.64 C589.84,1475.64 588.6,1474.4 588.6,1472.84 C588.6,1471.28 589.84,1470.04 591.4,1470.04 L597.92,1470.04 L597.92,1466.64 L595.52,1466.64 C592,1466.64 589.36,1463.28 589.36,1459.36 C589.36,1455.44 592,1452.08 595.52,1452.08 L607.4,1452.08 C610.92,1452.08 613.56,1455.44 613.56,1459.36 C613.56,1463.28 610.92,1466.64 607.4,1466.64 L605.04,1466.64 L605.04,1469.76 C607.2,1469.64 609.36,1469.4 611.56,1469.04 C613.12,1468.8 614.6,1469.84 614.8,1471.4 C615,1473 613.88,1474.44 612.44,1474.64 C605.56,1475.6 598.88,1475.64 591.4,1475.64 Z M615.8,1476.96 L615.8,1454.68 C615.8,1452.64 617.4,1451.08 619.4,1451.08 C621.4,1451.08 623,1452.64 623,1454.68 L623,1462.68 L625.16,1462.68 C626.72,1462.68 627.96,1463.92 627.96,1465.48 C627.96,1467.04 626.72,1468.28 625.16,1468.28 L623,1468.28 L623,1476.96 C623,1479.04 621.4,1480.56 619.4,1480.56 C617.4,1480.56 615.8,1479.04 615.8,1476.96 Z M591.08,1485.24 L591.08,1480.12 C591.08,1478.12 592.68,1476.92 594.68,1476.92 C596.68,1476.92 598.28,1478.12 598.28,1480.12 L598.28,1483.04 L621.4,1483.04 C622.96,1483.04 624.2,1484.28 624.2,1485.84 C624.2,1487.4 622.96,1488.64 621.4,1488.64 L594.48,1488.64 C592.72,1488.64 591.08,1487.32 591.08,1485.24 Z M596.4,1459.36 C596.4,1460.44 597.04,1461.2 597.92,1461.2 L605,1461.2 C605.88,1461.2 606.52,1460.44 606.52,1459.36 C606.52,1458.28 605.88,1457.52 605,1457.52 L597.92,1457.52 C597.04,1457.52 596.4,1458.28 596.4,1459.36 Z M637.2,1469.36 L661.6,1469.36 C663.16,1469.36 664.4,1470.6 664.4,1472.16 C664.4,1473.72 663.16,1474.96 661.6,1474.96 L632.76,1474.96 C631.24,1474.96 630,1473.72 630,1472.2 L630,1463.48 C630,1461.96 631.24,1460.96 632.76,1460.96 L656.8,1460.96 L656.8,1458.08 L632.64,1458.08 C631.08,1458.08 629.8,1456.84 629.8,1455.28 C629.8,1453.72 631.08,1452.48 632.64,1452.48 L661.24,1452.48 C662.76,1452.48 664,1453.72 664,1455.24 L664,1463.64 C664,1465.2 662.76,1466.4 661.2,1466.4 L637.2,1466.4 L637.2,1469.36 Z M628.6,1484.68 C628.6,1483.04 630,1481.72 631.64,1481.72 L636.08,1481.72 L636.08,1479.16 C636.08,1477.12 637.64,1476.16 639.68,1476.16 C641.72,1476.16 643.28,1477.12 643.28,1479.16 L643.28,1481.72 L650.72,1481.72 L650.72,1479.16 C650.72,1477.12 652.28,1476.16 654.32,1476.16 C656.36,1476.16 657.92,1477.12 657.92,1479.16 L657.92,1481.72 L662.32,1481.72 C664.04,1481.72 665.4,1483.04 665.4,1484.68 C665.4,1486.28 664.04,1487.64 662.32,1487.64 L631.64,1487.64 C630,1487.64 628.6,1486.28 628.6,1484.68 Z" transform="translate(-508 -1451)"/>
</svg>
